<?xml version="1.0" encoding="UTF-8"?>
<svg version="1.1" xmlns="http://www.w3.org/2000/svg" width="500" height="500">
<path d="M0 0 C1.62706627 -0.01285538 1.62706627 -0.01285538 3.28700256 -0.02597046 C5.57566543 -0.0374307 7.86440112 -0.03847694 10.15307617 -0.02978516 C13.64563782 -0.02346378 17.13481004 -0.0704081 20.62695312 -0.12109375 C22.85546449 -0.12564016 25.08398493 -0.12704653 27.3125 -0.125 C28.87060646 -0.15262924 28.87060646 -0.15262924 30.46018982 -0.18081665 C36.57546201 -0.10317097 40.03921351 0.72926661 44.49488831 5.02163696 C47.28577958 8.61303257 47.03760863 12.94277568 47.28515625 17.2890625 C47.32833984 17.99095703 47.37152344 18.69285156 47.41601562 19.41601562 C47.52182985 21.14431456 47.62272206 22.8729136 47.72265625 24.6015625 C48.65013672 24.58585205 49.57761719 24.5701416 50.53320312 24.55395508 C54.00721947 24.50252193 57.48082531 24.46506568 60.95507812 24.43676758 C62.45253932 24.42177362 63.9499573 24.40137145 65.44726562 24.37524414 C83.10842277 24.07500447 83.10842277 24.07500447 91.09765625 29.8515625 C96.13552689 35.12933175 96.02097648 41.6197533 96.01318359 48.53100586 C96.01990082 49.39699905 96.02661804 50.26299225 96.03353882 51.15522766 C96.05244276 54.00067984 96.05643884 56.8458953 96.05859375 59.69140625 C96.06502581 61.68005976 96.07175447 63.66871234 96.07876587 65.65736389 C96.09071878 69.81904291 96.09444862 73.98063902 96.09326172 78.14233398 C96.09305838 83.46296522 96.12038494 88.78306323 96.15480614 94.10356808 C96.17708934 98.20864789 96.18109886 102.31359951 96.18004227 106.4187336 C96.18239513 108.3798564 96.19120089 110.34098291 96.206707 112.30204582 C96.2264004 115.04931482 96.22051645 117.79543537 96.20849609 120.54272461 C96.21973511 121.34453156 96.23097412 122.1463385 96.24255371 122.97244263 C96.1802035 128.607352 94.84707141 132.88159043 91.72265625 137.6015625 C87.36041325 141.82470018 83.51928783 142.05657119 77.72451782 142.05474854 C76.70554413 142.03410339 75.68657043 142.01345825 74.63671875 141.9921875 C73.57979828 141.98652771 72.52287781 141.98086792 71.43392944 141.97503662 C68.07136995 141.95271717 64.70989153 141.90252731 61.34765625 141.8515625 C59.06251543 141.83149185 56.77735785 141.81324207 54.4921875 141.796875 C48.90197737 141.75286697 43.31239407 141.68599876 37.72265625 141.6015625 C36.73265625 138.1365625 36.73265625 138.1365625 35.72265625 134.6015625 C34.73265625 136.9115625 33.74265625 139.2215625 32.72265625 141.6015625 C27.18677092 141.62621025 21.65091725 141.64439746 16.11499023 141.65649414 C14.23021895 141.66153494 12.3454516 141.66836748 10.46069336 141.67700195 C7.75763989 141.68907867 5.05463794 141.69479318 2.3515625 141.69921875 C1.07968834 141.70696068 1.07968834 141.70696068 -0.21788025 141.71485901 C-2.23805443 141.71505445 -4.25812309 141.66362461 -6.27734375 141.6015625 C-8.32432789 139.55457836 -7.97780068 135.29745009 -8.27734375 132.6015625 C-8.42171875 133.9009375 -8.56609375 135.2003125 -8.71484375 136.5390625 C-9.15234375 140.4765625 -9.15234375 140.4765625 -10.27734375 141.6015625 C-18.39318755 142.86204603 -26.48018509 142.8942438 -34.67675781 142.95166016 C-36.4106179 142.96826302 -38.14440835 142.99560992 -39.87792969 143.03369141 C-42.40725356 143.08875999 -44.93499951 143.11036811 -47.46484375 143.125 C-48.22966064 143.14766937 -48.99447754 143.17033875 -49.7824707 143.19369507 C-55.52571079 143.17140575 -60.06974734 141.63468206 -64.27734375 137.6015625 C-67.03978593 133.13825726 -67.7205212 129.52431539 -67.9543457 124.31835938 C-67.98736188 123.62441826 -68.02037806 122.93047714 -68.05439472 122.21550751 C-68.40279305 114.19177994 -68.44147211 106.16276414 -68.4453125 98.1328125 C-68.4485379 96.51574679 -68.45190286 94.89868136 -68.45539856 93.28161621 C-68.46132252 89.92699506 -68.463245 86.57239944 -68.46264648 83.21777344 C-68.4625441 78.93672319 -68.47630438 74.65583595 -68.49341869 70.37482452 C-68.50456225 67.04955296 -68.50656513 63.72432091 -68.50603676 60.39903259 C-68.50720914 58.82030159 -68.51158877 57.24156932 -68.51936913 55.66285706 C-68.60077962 37.47395562 -68.60077962 37.47395562 -64.58984375 30.7890625 C-54.14102556 20.90504529 -33.6305022 24.4773204 -20.27734375 24.6015625 C-20.32955078 23.56708984 -20.32955078 23.56708984 -20.3828125 22.51171875 C-20.56014333 16.35580558 -20.66184983 9.97632844 -17.27734375 4.6015625 C-11.8926156 -0.13161299 -6.96901563 -0.0122057 0 0 Z M-8.27734375 12.6015625 C-8.34978428 14.62120449 -8.36111563 16.64323374 -8.33984375 18.6640625 C-8.33082031 19.76878906 -8.32179687 20.87351563 -8.3125 22.01171875 C-8.30089844 22.86636719 -8.28929687 23.72101563 -8.27734375 24.6015625 C-4.83761344 26.32142765 -0.88863257 25.59560309 2.88671875 25.48046875 C3.7939267 25.45685776 4.70113464 25.43324677 5.63583374 25.40892029 C8.53993076 25.33220729 11.44376622 25.24821585 14.34765625 25.1640625 C16.31378919 25.11084946 18.27993498 25.05810901 20.24609375 25.00585938 C25.07178093 24.87658181 29.89724587 24.74077524 34.72265625 24.6015625 C35.98503356 22.07680788 35.82122029 20.28955784 35.78515625 17.4765625 C35.77613281 16.56648437 35.76710938 15.65640625 35.7578125 14.71875 C35.74621094 14.02007812 35.73460937 13.32140625 35.72265625 12.6015625 C32.29512401 10.88779638 28.36468881 11.4601089 24.59375 11.46875 C23.68891373 11.46779327 22.78407745 11.46683655 21.8518219 11.46585083 C19.93775361 11.46516977 18.02368301 11.46701889 16.10961914 11.47119141 C13.16873021 11.47654689 10.22799358 11.47124072 7.28710938 11.46484375 C5.43098924 11.46550442 3.57486921 11.46678536 1.71875 11.46875 C0.83336044 11.46672577 -0.05202911 11.46470154 -0.96424866 11.46261597 C-4.93769668 11.07796874 -4.93769668 11.07796874 -8.27734375 12.6015625 Z " fill="#898F8D" transform="translate(236.27734375,176.3984375)"/>
<path d="M0 0 C1.62706627 -0.01285538 1.62706627 -0.01285538 3.28700256 -0.02597046 C5.57566543 -0.0374307 7.86440112 -0.03847694 10.15307617 -0.02978516 C13.64563782 -0.02346378 17.13481004 -0.0704081 20.62695312 -0.12109375 C22.85546449 -0.12564016 25.08398493 -0.12704653 27.3125 -0.125 C28.87060646 -0.15262924 28.87060646 -0.15262924 30.46018982 -0.18081665 C36.57546201 -0.10317097 40.03921351 0.72926661 44.49488831 5.02163696 C47.28577958 8.61303257 47.03760863 12.94277568 47.28515625 17.2890625 C47.32833984 17.99095703 47.37152344 18.69285156 47.41601562 19.41601562 C47.52182985 21.14431456 47.62272206 22.8729136 47.72265625 24.6015625 C48.65013672 24.58585205 49.57761719 24.5701416 50.53320312 24.55395508 C54.00721947 24.50252193 57.48082531 24.46506568 60.95507812 24.43676758 C62.45253932 24.42177362 63.9499573 24.40137145 65.44726562 24.37524414 C83.10842277 24.07500447 83.10842277 24.07500447 91.09765625 29.8515625 C96.13552689 35.12933175 96.02097648 41.6197533 96.01318359 48.53100586 C96.01990082 49.39699905 96.02661804 50.26299225 96.03353882 51.15522766 C96.05244276 54.00067984 96.05643884 56.8458953 96.05859375 59.69140625 C96.06502581 61.68005976 96.07175447 63.66871234 96.07876587 65.65736389 C96.09071878 69.81904291 96.09444862 73.98063902 96.09326172 78.14233398 C96.09305838 83.46296522 96.12038494 88.78306323 96.15480614 94.10356808 C96.17708934 98.20864789 96.18109886 102.31359951 96.18004227 106.4187336 C96.18239513 108.3798564 96.19120089 110.34098291 96.206707 112.30204582 C96.2264004 115.04931482 96.22051645 117.79543537 96.20849609 120.54272461 C96.21973511 121.34453156 96.23097412 122.1463385 96.24255371 122.97244263 C96.18103513 128.53219343 94.96916834 133.01245711 91.72265625 137.6015625 C90.73265625 138.2615625 89.74265625 138.9215625 88.72265625 139.6015625 C88.72265625 138.9415625 88.72265625 138.2815625 88.72265625 137.6015625 C87.73265625 138.2615625 86.74265625 138.9215625 85.72265625 139.6015625 C83.03515625 139.2265625 83.03515625 139.2265625 80.72265625 138.6015625 C81.05265625 137.9415625 81.38265625 137.2815625 81.72265625 136.6015625 C77.21701734 135.49966125 72.7535773 135.38355017 68.140625 135.28515625 C67.32644608 135.26437515 66.51226715 135.24359406 65.67341614 135.22218323 C63.08574446 135.15706787 60.49797572 135.09798042 57.91015625 135.0390625 C56.1503808 134.99584108 54.39061497 134.95222565 52.63085938 134.90820312 C48.32822316 134.8014257 44.02548982 134.70005232 39.72265625 134.6015625 C39.72265625 134.2715625 39.72265625 133.9415625 39.72265625 133.6015625 C40.93848389 133.59745361 42.15431152 133.59334473 43.40698242 133.58911133 C47.92677955 133.5673058 52.44570788 133.51300137 56.96508789 133.44897461 C58.91943014 133.42580699 60.87389702 133.41140179 62.82836914 133.40600586 C65.64157668 133.39670718 68.45282737 133.35569775 71.265625 133.30859375 C72.57215279 133.31449272 72.57215279 133.31449272 73.90507507 133.32051086 C77.97675664 133.22303 80.24487711 132.89152291 83.78320312 130.74414062 C86.66178317 126.07985533 86.34640362 121.9892905 86.2109375 116.61328125 C86.20386276 115.55494583 86.19678802 114.49661041 86.1894989 113.40620422 C86.16155844 110.03309813 86.09881746 106.66166504 86.03515625 103.2890625 C86.01007307 100.99937297 85.98725994 98.70965736 85.96679688 96.41992188 C85.91173306 90.81323335 85.82810955 85.20751746 85.72265625 79.6015625 C85.06265625 80.2615625 84.40265625 80.9215625 83.72265625 81.6015625 C82.36825957 78.89276915 82.65764174 76.59222982 82.72265625 73.6015625 C81.05976563 74.43300781 81.05976563 74.43300781 79.36328125 75.28125 C75.14973958 77.38802083 70.93619792 79.49479167 66.72265625 81.6015625 C66.02881836 81.97941895 65.33498047 82.35727539 64.62011719 82.74658203 C62.24921869 83.81488962 61.12258317 83.45867926 58.72265625 82.6015625 C59.38265625 82.6015625 60.04265625 82.6015625 60.72265625 82.6015625 C60.72265625 81.9415625 60.72265625 81.2815625 60.72265625 80.6015625 C66.75641106 76.02062067 75.94177959 70.6015625 83.72265625 70.6015625 C83.92890625 70.0240625 84.13515625 69.4465625 84.34765625 68.8515625 C86.22016513 65.78745706 88.69224144 64.44616282 91.72265625 62.6015625 C82.29032393 65.85074638 73.66916923 70.76176175 64.89990234 75.44775391 C60.87989733 77.57811315 56.8057757 79.59591032 52.72265625 81.6015625 C47.65554326 77.35946114 42.91042254 72.92439161 38.2578125 68.234375 C37.57963974 67.55478729 36.90146698 66.87519958 36.20274353 66.17501831 C34.06116484 64.02789248 31.92311096 61.87729623 29.78515625 59.7265625 C28.32380036 58.26018477 26.86221399 56.7940367 25.40039062 55.328125 C21.8384769 51.7552525 18.2797176 48.17926566 14.72265625 44.6015625 C11.92695461 45.94883511 9.88297822 47.19862483 7.70703125 49.421875 C7.17851562 49.95683594 6.65 50.49179688 6.10546875 51.04296875 C5.56664062 51.59855469 5.0278125 52.15414062 4.47265625 52.7265625 C3.91835937 53.28988281 3.3640625 53.85320312 2.79296875 54.43359375 C1.4316114 55.81842278 0.07650766 57.20939454 -1.27734375 58.6015625 C-1.60734375 57.6115625 -1.93734375 56.6215625 -2.27734375 55.6015625 C-2.60734375 56.5915625 -2.93734375 57.5815625 -3.27734375 58.6015625 C-6.27734375 60.6015625 -6.27734375 60.6015625 -9.27734375 61.6015625 C-9.93734375 60.9415625 -10.59734375 60.2815625 -11.27734375 59.6015625 C-11.37015625 60.6534375 -11.37015625 60.6534375 -11.46484375 61.7265625 C-12.56763691 65.62875369 -14.61950396 67.54504674 -17.27734375 70.6015625 C-17.77234375 72.0865625 -17.77234375 72.0865625 -18.27734375 73.6015625 C-19.94401042 74.6015625 -21.61067708 75.6015625 -23.27734375 76.6015625 C-23.77234375 78.0865625 -23.77234375 78.0865625 -24.27734375 79.6015625 C-24.83421875 79.1065625 -25.39109375 78.6115625 -25.96484375 78.1015625 C-28.65897358 76.35401883 -30.13109382 76.33937501 -33.27734375 76.6015625 C-33.60734375 75.6115625 -33.93734375 74.6215625 -34.27734375 73.6015625 C-34.81359375 73.8284375 -35.34984375 74.0553125 -35.90234375 74.2890625 C-39.33816276 74.74114395 -41.33501069 73.27334265 -44.27734375 71.6015625 C-44.27734375 70.2815625 -44.27734375 68.9615625 -44.27734375 67.6015625 C-45.76234375 67.1065625 -45.76234375 67.1065625 -47.27734375 66.6015625 C-47.77234375 65.6115625 -47.77234375 65.6115625 -48.27734375 64.6015625 C-48.60734375 65.9215625 -48.93734375 67.2415625 -49.27734375 68.6015625 C-49.93734375 68.1890625 -50.59734375 67.7765625 -51.27734375 67.3515625 C-54.86386405 65.25942566 -58.54861867 63.42428915 -62.27734375 61.6015625 C-62.27734375 60.6115625 -62.27734375 59.6215625 -62.27734375 58.6015625 C-62.93734375 58.6015625 -63.59734375 58.6015625 -64.27734375 58.6015625 C-64.60734375 52.3315625 -64.93734375 46.0615625 -65.27734375 39.6015625 C-66.14153598 42.19413919 -66.45315307 43.94193957 -66.59375 46.61328125 C-66.63564453 47.37060547 -66.67753906 48.12792969 -66.72070312 48.90820312 C-66.76001953 49.69388672 -66.79933594 50.47957031 -66.83984375 51.2890625 C-66.90461914 52.48499023 -66.90461914 52.48499023 -66.97070312 53.70507812 C-67.07661743 55.67037697 -67.17746926 57.63594746 -67.27734375 59.6015625 C-67.60734375 59.6015625 -67.93734375 59.6015625 -68.27734375 59.6015625 C-68.33183603 56.76796406 -68.37125108 53.93543765 -68.40234375 51.1015625 C-68.41910156 50.31007812 -68.43585938 49.51859375 -68.453125 48.703125 C-68.5058812 42.26686881 -67.97386713 36.42910147 -64.58984375 30.7890625 C-54.14102556 20.90504529 -33.6305022 24.4773204 -20.27734375 24.6015625 C-20.32955078 23.56708984 -20.32955078 23.56708984 -20.3828125 22.51171875 C-20.56014333 16.35580558 -20.66184983 9.97632844 -17.27734375 4.6015625 C-11.8926156 -0.13161299 -6.96901563 -0.0122057 0 0 Z M-8.27734375 12.6015625 C-8.34978428 14.62120449 -8.36111563 16.64323374 -8.33984375 18.6640625 C-8.33082031 19.76878906 -8.32179687 20.87351563 -8.3125 22.01171875 C-8.30089844 22.86636719 -8.28929687 23.72101563 -8.27734375 24.6015625 C-4.83761344 26.32142765 -0.88863257 25.59560309 2.88671875 25.48046875 C3.7939267 25.45685776 4.70113464 25.43324677 5.63583374 25.40892029 C8.53993076 25.33220729 11.44376622 25.24821585 14.34765625 25.1640625 C16.31378919 25.11084946 18.27993498 25.05810901 20.24609375 25.00585938 C25.07178093 24.87658181 29.89724587 24.74077524 34.72265625 24.6015625 C35.98503356 22.07680788 35.82122029 20.28955784 35.78515625 17.4765625 C35.77613281 16.56648437 35.76710938 15.65640625 35.7578125 14.71875 C35.74621094 14.02007812 35.73460937 13.32140625 35.72265625 12.6015625 C32.29512401 10.88779638 28.36468881 11.4601089 24.59375 11.46875 C23.68891373 11.46779327 22.78407745 11.46683655 21.8518219 11.46585083 C19.93775361 11.46516977 18.02368301 11.46701889 16.10961914 11.47119141 C13.16873021 11.47654689 10.22799358 11.47124072 7.28710938 11.46484375 C5.43098924 11.46550442 3.57486921 11.46678536 1.71875 11.46875 C0.83336044 11.46672577 -0.05202911 11.46470154 -0.96424866 11.46261597 C-4.93769668 11.07796874 -4.93769668 11.07796874 -8.27734375 12.6015625 Z " fill="#9FA0A0" transform="translate(236.27734375,176.3984375)"/>
<path d="M0 0 C2 2 2 2 2.22705078 3.97119141 C2.21657715 4.75671387 2.20610352 5.54223633 2.1953125 6.3515625 C2.18886719 7.20234375 2.18242187 8.053125 2.17578125 8.9296875 C2.15902344 9.81914062 2.14226562 10.70859375 2.125 11.625 C2.11597656 12.5221875 2.10695312 13.419375 2.09765625 14.34375 C2.0740497 16.56276586 2.0411231 18.78125077 2 21 C2.66 21 3.32 21 4 21 C4 21.99 4 22.98 4 24 C5.093125 24.268125 6.18625 24.53625 7.3125 24.8125 C10.7643868 25.92412456 11.75404649 26.41715346 14 29 C14.99 29.33 15.98 29.66 17 30 C17.33 29.01 17.66 28.02 18 27 C20 28 20 28 22 30 C22 31.32 22 32.64 22 34 C24.580947 34.5161894 27.15012816 35.02388403 29.75 35.4375 C30.86375 35.7159375 30.86375 35.7159375 32 36 C32.33 36.66 32.66 37.32 33 38 C33.94875 37.95875 34.8975 37.9175 35.875 37.875 C39 38 39 38 41 40 C41.33 39.67 41.66 39.34 42 39 C45.72 36 45.72 36 48 36 C48.185625 35.1028125 48.185625 35.1028125 48.375 34.1875 C49 32 49 32 51 29 C51.66 29 52.32 29 53 29 C53.185625 27.2984375 53.185625 27.2984375 53.375 25.5625 C53.58125 24.386875 53.7875 23.21125 54 22 C54.66 21.67 55.32 21.34 56 21 C56.495 21.99 56.495 21.99 57 23 C57.66 22.67 58.32 22.34 59 22 C60.32860925 21.64830932 61.66158328 21.31229724 63 21 C63.33 19.68 63.66 18.36 64 17 C64.495 18.485 64.495 18.485 65 20 C66.65 18.68 68.3 17.36 70 16 C69.61402985 18.79828356 69.19863427 19.8205884 67.0625 21.75 C65 23 65 23 63 23 C62.505 24.485 62.505 24.485 62 26 C60.3984375 27.54296875 60.3984375 27.54296875 58.375 29.1875 C55.4380185 31.67263819 52.82158388 34.20784533 50.3125 37.125 C49.45591797 38.11886719 49.45591797 38.11886719 48.58203125 39.1328125 C47.21321817 40.74834991 45.85556086 42.37332697 44.5 44 C41.2192048 46.62463616 39.0909883 46.40107728 35 46 C35 46.66 35 47.32 35 48 C35.928125 48.28875 36.85625 48.5775 37.8125 48.875 C41 50 41 50 44 52 C45.65549531 52.38499891 47.3222433 52.72793135 49 53 C48.814375 51.95779297 48.814375 51.95779297 48.625 50.89453125 C49.19180868 46.51947675 51.85914868 44.59844667 55 41.6875 C55.57234375 41.13771484 56.1446875 40.58792969 56.734375 40.02148438 C58.14523949 38.6694059 59.57120512 37.33311665 61 36 C61 39 61 39 59.25 41.04296875 C58.5075 41.75066406 57.765 42.45835937 57 43.1875 C55.88625 44.26064453 55.88625 44.26064453 54.75 45.35546875 C54.1725 45.89816406 53.595 46.44085938 53 47 C54.18333333 48.38333333 54.18333333 48.38333333 57.5 48.5 C61 49 61 49 62 50 C62.09346915 51.65738443 62.11744977 53.31874644 62.11352539 54.97875977 C62.11341209 56.57029625 62.11341209 56.57029625 62.11329651 58.19398499 C62.10813522 59.348134 62.10297394 60.50228302 62.09765625 61.69140625 C62.0962413 62.86638168 62.09482635 64.04135712 62.09336853 65.25193787 C62.08774992 69.02215064 62.07519426 72.79230504 62.0625 76.5625 C62.0574874 79.11132727 62.05292408 81.66015547 62.04882812 84.20898438 C62.03862331 90.47269709 62.01905152 96.73628284 62 103 C73.55 103 85.1 103 97 103 C97 103.33 97 103.66 97 104 C91.74894558 104.02464928 86.49792455 104.04283568 81.24682617 104.05493164 C79.45905979 104.05997218 77.67129755 104.06680454 75.88354492 104.07543945 C73.31948832 104.0875173 70.75548603 104.09323094 68.19140625 104.09765625 C66.98515343 104.10539818 66.98515343 104.10539818 65.75453186 104.11329651 C63.83598285 104.11349215 61.91754632 104.06201983 60 104 C57.95301586 101.95301586 58.29954307 97.69588759 58 95 C57.855625 96.299375 57.71125 97.59875 57.5625 98.9375 C57.125 102.875 57.125 102.875 56 104 C47.8841562 105.26048353 39.79715866 105.2926813 31.60058594 105.35009766 C29.86672585 105.36670052 28.1329354 105.39404742 26.39941406 105.43212891 C23.87009019 105.48719749 21.34234424 105.50880561 18.8125 105.5234375 C18.04768311 105.54610687 17.28286621 105.56877625 16.49487305 105.59213257 C10.6067754 105.56928106 6.44388388 103.90950719 2 100 C-0.81133576 95.83769433 -1.43691264 92.33628661 -1.6796875 87.37109375 C-1.71270966 86.69831894 -1.74573181 86.02554413 -1.77975464 85.3323822 C-2.22261204 74.83175866 -2.14831738 64.30857779 -2.13037109 53.80102539 C-2.12501608 50.073689 -2.13034179 46.34647334 -2.13671875 42.61914062 C-2.14719761 9.50016653 -2.14719761 9.50016653 0 0 Z " fill="#909492" transform="translate(170,214)"/>
<path d="M0 0 C-0.56959153 3.62613199 -1.92374534 5.25517741 -4.5625 7.75 C-5.52349609 8.67039063 -5.52349609 8.67039063 -6.50390625 9.609375 C-6.99761719 10.06828125 -7.49132812 10.5271875 -8 11 C-5.24899043 8.87779262 -2.77878116 6.76824693 -0.375 4.25 C2 2 2 2 5 2 C5 2.66 5 3.32 5 4 C5.66 4 6.32 4 7 4 C7 4.66 7 5.32 7 6 C7.66 6 8.32 6 9 6 C9 6.66 9 7.32 9 8 C9.59941406 8.26167969 10.19882812 8.52335938 10.81640625 8.79296875 C13.13061764 10.07220188 14.29659445 11.26250442 15.9375 13.3125 C18.47652862 16.39107221 21.14036523 19.21011242 24 22 C25.23050344 23.22782844 26.45960248 24.4570655 27.6875 25.6875 C28.26886719 26.26886719 28.85023438 26.85023438 29.44921875 27.44921875 C30.6328125 28.6328125 31.81640625 29.81640625 33 31 C27.555 31.495 27.555 31.495 22 32 C21.67 49.49 21.34 66.98 21 85 C9.12 85 -2.76 85 -15 85 C-15.33 67.84 -15.66 50.68 -16 33 C-18.97 32.34 -21.94 31.68 -25 31 C-23.50260417 29.27473958 -22.00520833 27.54947917 -20.5078125 25.82421875 C-18.8359553 23.86501788 -18.8359553 23.86501788 -17 21 C-18.65795529 22.54963153 -20.30098044 24.11524769 -21.9375 25.6875 C-23.31228516 26.99267578 -23.31228516 26.99267578 -24.71484375 28.32421875 C-27.04646772 31.05441092 -27.70207297 32.48192553 -28 36 C-31.71599191 36.20086443 -32.77208445 36.1519437 -36 34 C-35.44113306 30.52757342 -34.46501615 29.2304405 -31.6875 27.125 C-28.35639525 24.43162202 -26.31384077 21.6250172 -24 18 C-19.63829787 13.21276596 -19.63829787 13.21276596 -16 12 C-15.319375 10.824375 -15.319375 10.824375 -14.625 9.625 C-12.75255122 6.60027505 -11.07568947 5.69162921 -8 4 C-6.98131338 3.01904252 -5.97648017 2.02297922 -5 1 C-3 0 -3 0 0 0 Z " fill="#FEFEFE" transform="translate(247,231)"/>
<path d="M0 0 C0.33 0 0.66 0 1 0 C1.33 1.65 1.66 3.3 2 5 C2.66 4.34 3.32 3.68 4 3 C6.5 3.1875 6.5 3.1875 9 4 C11 7 11 7 11 11 C11.350625 10.484375 11.70125 9.96875 12.0625 9.4375 C14 8 14 8 16.9375 8.0625 C22.41898551 8.9818788 27.12048379 11.92605085 31.9375 14.5625 C35.258125 16.356875 38.57875 18.15125 42 20 C42 30.23 42 40.46 42 51 C29.46 51 16.92 51 4 51 C23.8 51.495 23.8 51.495 44 52 C44 52.33 44 52.66 44 53 C37.04609626 54.10720612 30.16187958 54.29163391 23.12963867 54.35009766 C21.66626147 54.36672139 20.20296756 54.39409572 18.73999023 54.43212891 C16.60618974 54.48710528 14.47425822 54.50878696 12.33984375 54.5234375 C11.07519287 54.54325684 9.81054199 54.56307617 8.50756836 54.58349609 C4.99345331 53.99891094 2.73890483 53.18410388 0.11985779 50.70767212 C-2.20140202 47.16798101 -1.74471998 43.1534613 -1.62109375 39.0625 C-1.61497574 38.10480713 -1.60885773 37.14711426 -1.60255432 36.16040039 C-1.57565937 33.10585561 -1.50655574 30.05385184 -1.4375 27 C-1.41596912 24.94533857 -1.3970601 22.89064787 -1.38085938 20.8359375 C-1.20074493 4.69321127 -1.20074493 4.69321127 0 0 Z " fill="#167F3F" transform="translate(181,253)"/>
<path d="M0 0 C0.07597206 6.49609906 0.12856672 12.99208385 0.16479492 19.48852539 C0.17989525 21.69918092 0.20037709 23.90980643 0.22631836 26.12036133 C0.26264655 29.29515993 0.27971384 32.46956297 0.29296875 35.64453125 C0.30845261 36.63524124 0.32393646 37.62595123 0.33988953 38.64668274 C0.34011612 39.56741074 0.34034271 40.48813873 0.34057617 41.43676758 C0.34723801 42.2472908 0.35389984 43.05781403 0.36076355 43.89289856 C-0.08407283 46.49104181 -1.04316519 47.30970617 -3 49 C-3 49.33 -3 49.66 -3 50 C-15.87 50 -28.74 50 -42 50 C-42 38.78 -42 27.56 -42 16 C-29 14 -29 14 -24 15 C-23.814375 14.2575 -23.62875 13.515 -23.4375 12.75 C-21.50552868 9.05405486 -18.88146531 7.28864648 -15 6 C-11.0625 6.25 -11.0625 6.25 -8 7 C-8.66 5.35 -9.32 3.7 -10 2 C-6.16792632 -0.73719549 -4.51806663 -1.14660178 0 0 Z " fill="#112F6A" transform="translate(317,256)"/>
<path d="M0 0 C0.33 0 0.66 0 1 0 C1.10141744 7.88359592 1.17147331 15.76702362 1.21972656 23.65112305 C1.23758325 26.33327823 1.26541436 29.0150546 1.30175781 31.69702148 C1.35027542 35.55203066 1.37296994 39.40645998 1.390625 43.26171875 C1.41127014 44.46084396 1.43191528 45.65996918 1.45318604 46.89543152 C1.45542366 55.19629324 1.45542366 55.19629324 -0.82128906 59.21411133 C-3.4176898 61.3423802 -5.76038444 62.19009611 -9 63 C-6.03 63.99 -6.03 63.99 -3 65 C-3.33 65.66 -3.66 66.32 -4 67 C-1.69 66.67 0.62 66.34 3 66 C2 69 2 69 0 70 C-1.54227856 70.08991092 -3.08840895 70.11756961 -4.63330078 70.11352539 C-5.59414581 70.11344986 -6.55499084 70.11337433 -7.54495239 70.11329651 C-8.58457123 70.10813522 -9.62419006 70.10297394 -10.6953125 70.09765625 C-11.75789276 70.0962413 -12.82047302 70.09482635 -13.91525269 70.09336853 C-17.31853009 70.08775834 -20.72174238 70.07520409 -24.125 70.0625 C-26.42838447 70.05748631 -28.73176997 70.05292318 -31.03515625 70.04882812 C-36.69014961 70.03863527 -42.34500167 70.01906179 -48 70 C-48 54.82 -48 39.64 -48 24 C-47.67 24 -47.34 24 -47 24 C-47 35.22 -47 46.44 -47 58 C-46.34 57.34 -45.68 56.68 -45 56 C-42.23081754 55.7664114 -39.55409735 55.65052505 -36.78125 55.62109375 C-35.96756958 55.60409927 -35.15388916 55.5871048 -34.31555176 55.56959534 C-31.71044714 55.51637099 -29.10535875 55.47613168 -26.5 55.4375 C-23.89472373 55.39359085 -21.289572 55.34688727 -18.68444824 55.29469299 C-17.06190304 55.26271241 -15.43924799 55.23582959 -13.81652832 55.21446228 C-9.77708349 55.23088534 -9.77708349 55.23088534 -6 54 C-6 38.82 -6 23.64 -6 8 C-10.71058562 8.83462035 -10.71058562 8.83462035 -14 10 C-13.505 10.99 -13.505 10.99 -13 12 C-13.33 12.66 -13.66 13.32 -14 14 C-13.01 14.33 -12.02 14.66 -11 15 C-15.56338028 16.14084507 -15.56338028 16.14084507 -17.9375 15.375 C-21.33018087 14.75814893 -23.22045927 16.14697284 -26 18 C-26.96906827 20.58414426 -26.96906827 20.58414426 -27 23 C-27.66386719 22.98839844 -28.32773437 22.97679687 -29.01171875 22.96484375 C-33.52575189 22.91871494 -37.57201068 23.08835514 -42 24 C-43.34181403 23.70263828 -44.67736928 23.37354633 -46 23 C-36.11351448 17.3205296 -26.14492499 11.92252662 -15.890625 6.93505859 C-14.5388388 6.26649698 -13.19595213 5.57981896 -11.859375 4.88134766 C-11.15296875 4.51444824 -10.4465625 4.14754883 -9.71875 3.76953125 C-9.07873047 3.43155518 -8.43871094 3.0935791 -7.77929688 2.74536133 C-6 2 -6 2 -3 2 C-2.505 4.97 -2.505 4.97 -2 8 C-1.67 8 -1.34 8 -1 8 C-0.67 5.36 -0.34 2.72 0 0 Z " fill="#555D61" transform="translate(322,248)"/>
<path d="M0 0 C1.62706627 -0.01285538 1.62706627 -0.01285538 3.28700256 -0.02597046 C5.57566543 -0.0374307 7.86440112 -0.03847694 10.15307617 -0.02978516 C13.64563782 -0.02346378 17.13481004 -0.0704081 20.62695312 -0.12109375 C22.85546449 -0.12564016 25.08398493 -0.12704653 27.3125 -0.125 C28.87060646 -0.15262924 28.87060646 -0.15262924 30.46018982 -0.18081665 C36.53785039 -0.10364852 40.04802097 0.73577538 44.54714966 4.91558838 C46.76537371 8.09708338 46.20809425 11.30371747 45.66015625 14.9765625 C45.58087891 15.71261719 45.50160156 16.44867188 45.41992188 17.20703125 C45.22097902 19.0092195 44.97638552 20.80626804 44.72265625 22.6015625 C42.08265625 22.6015625 39.44265625 22.6015625 36.72265625 22.6015625 C36.72265625 19.3015625 36.72265625 16.0015625 36.72265625 12.6015625 C22.20265625 12.6015625 7.68265625 12.6015625 -7.27734375 12.6015625 C-7.60734375 16.5615625 -7.93734375 20.5215625 -8.27734375 24.6015625 C5.91265625 24.6015625 20.10265625 24.6015625 34.72265625 24.6015625 C35.05265625 23.9415625 35.38265625 23.2815625 35.72265625 22.6015625 C36.21765625 24.0865625 36.21765625 24.0865625 36.72265625 25.6015625 C33.78708332 26.44603773 31.18820336 26.72365673 28.13769531 26.71508789 C27.2370636 26.71501236 26.33643188 26.71493683 25.4085083 26.71485901 C24.44483337 26.70969772 23.48115845 26.70453644 22.48828125 26.69921875 C21.49511902 26.6978038 20.50195679 26.69638885 19.47869873 26.69493103 C16.30998713 26.68933838 13.14134646 26.6767872 9.97265625 26.6640625 C7.82291769 26.65904655 5.67317802 26.65448381 3.5234375 26.65039062 C-1.74351374 26.63937136 -7.01042368 26.6226405 -12.27734375 26.6015625 C-12.27734375 25.2815625 -12.27734375 23.9615625 -12.27734375 22.6015625 C-13.92734375 22.6015625 -15.57734375 22.6015625 -17.27734375 22.6015625 C-17.26574219 21.89128906 -17.25414062 21.18101562 -17.2421875 20.44921875 C-17.23316406 19.53011719 -17.22414062 18.61101562 -17.21484375 17.6640625 C-17.20324219 16.74753906 -17.19164062 15.83101562 -17.1796875 14.88671875 C-17.01785326 12.63562923 -17.01785326 12.63562923 -18.27734375 11.6015625 C-18.36822266 13.10009766 -18.36822266 13.10009766 -18.4609375 14.62890625 C-18.54472656 15.91925781 -18.62851563 17.20960938 -18.71484375 18.5390625 C-18.79605469 19.82683594 -18.87726563 21.11460937 -18.9609375 22.44140625 C-19.27734375 25.6015625 -19.27734375 25.6015625 -20.27734375 26.6015625 C-22.87093697 26.69007779 -25.43774066 26.71682195 -28.03125 26.69921875 C-28.80669662 26.6978038 -29.58214325 26.69638885 -30.38108826 26.69493103 C-32.86737869 26.68931595 -35.35358035 26.67676096 -37.83984375 26.6640625 C-39.52148308 26.65904944 -41.20312381 26.6544862 -42.88476562 26.65039062 C-47.01565941 26.63934163 -51.14648651 26.62206695 -55.27734375 26.6015625 C-55.27734375 26.2715625 -55.27734375 25.9415625 -55.27734375 25.6015625 C-43.59955405 24.50247641 -31.99546044 24.49253336 -20.27734375 24.6015625 C-20.32955078 23.56708984 -20.32955078 23.56708984 -20.3828125 22.51171875 C-20.56014333 16.35580558 -20.66184983 9.97632844 -17.27734375 4.6015625 C-11.8926156 -0.13161299 -6.96901563 -0.0122057 0 0 Z " fill="#A5A7A6" transform="translate(236.27734375,176.3984375)"/>
<path d="M0 0 C0.495 0.99 0.495 0.99 1 2 C-0.62339805 3.70884005 -2.29319053 5.37446717 -4 7 C-4.66 7 -5.32 7 -6 7 C-6.33 7.99 -6.66 8.98 -7 10 C-8.6015625 11.54296875 -8.6015625 11.54296875 -10.625 13.1875 C-13.5619815 15.67263819 -16.17841612 18.20784533 -18.6875 21.125 C-19.25855469 21.78757813 -19.82960937 22.45015625 -20.41796875 23.1328125 C-21.78678183 24.74834991 -23.14443914 26.37332697 -24.5 28 C-27.7807952 30.62463616 -29.9090117 30.40107728 -34 30 C-34 30.66 -34 31.32 -34 32 C-32.02 32.66 -30.04 33.32 -28 34 C-23.38 36.64 -18.76 39.28 -14 42 C-14 52.89 -14 63.78 -14 75 C-27.2 75 -40.4 75 -54 75 C-54.33 74.34 -54.66 73.68 -55 73 C-35.695 73.495 -35.695 73.495 -16 74 C-16 63.77 -16 53.54 -16 43 C-17.65 42.34 -19.3 41.68 -21 41 C-22.42586058 40.30902354 -23.84278617 39.59929434 -25.25 38.87109375 C-26.41015625 38.27844727 -26.41015625 38.27844727 -27.59375 37.67382812 C-29.19950749 36.84879201 -30.80367693 36.02065783 -32.40625 35.18945312 C-36.2440194 33.23538887 -39.65880051 31.49888784 -44 31 C-44.33 31.99 -44.66 32.98 -45 34 C-45.66 34 -46.32 34 -47 34 C-47.66 32.02 -48.32 30.04 -49 28 C-50.65 27.67 -52.3 27.34 -54 27 C-54.99 28.32 -55.98 29.64 -57 31 C-59.35119399 27.47320901 -59.21443452 25.97120515 -59.125 21.8125 C-59.10695312 20.72582031 -59.08890625 19.63914063 -59.0703125 18.51953125 C-59.04710937 17.68808594 -59.02390625 16.85664063 -59 16 C-62.465 14.02 -62.465 14.02 -66 12 C-66 11.34 -66 10.68 -66 10 C-66.99 9.67 -67.98 9.34 -69 9 C-64.98287028 7.39314811 -61.93957783 8.56742624 -58 10 C-56.25 11.5625 -56.25 11.5625 -55 13 C-54.01 13.33 -53.02 13.66 -52 14 C-51.67 13.01 -51.34 12.02 -51 11 C-49 12 -49 12 -47 14 C-47 15.32 -47 16.64 -47 18 C-44.419053 18.5161894 -41.84987184 19.02388403 -39.25 19.4375 C-38.5075 19.623125 -37.765 19.80875 -37 20 C-36.505 20.99 -36.505 20.99 -36 22 C-35.05125 21.95875 -34.1025 21.9175 -33.125 21.875 C-30 22 -30 22 -28 24 C-27.505 23.505 -27.505 23.505 -27 23 C-23.28 20 -23.28 20 -21 20 C-20.814375 19.1028125 -20.814375 19.1028125 -20.625 18.1875 C-20 16 -20 16 -18 13 C-17.34 13 -16.68 13 -16 13 C-15.814375 11.2984375 -15.814375 11.2984375 -15.625 9.5625 C-15.41875 8.386875 -15.2125 7.21125 -15 6 C-14.34 5.67 -13.68 5.34 -13 5 C-12.505 5.99 -12.505 5.99 -12 7 C-11.34 6.67 -10.68 6.34 -10 6 C-8.67139075 5.64830932 -7.33841672 5.31229724 -6 5 C-5.67 3.68 -5.34 2.36 -5 1 C-4.505 2.485 -4.505 2.485 -4 4 C-2.68 2.68 -1.36 1.36 0 0 Z " fill="#4D9363" transform="translate(239,230)"/>
<path d="M0 0 C2.16874252 0.50603992 3.99967627 0.99983813 6 2 C6.00586624 2.67794113 6.01173248 3.35588226 6.01777649 4.05436707 C6.08171579 11.11114535 6.16613745 18.16746781 6.26245117 25.22387695 C6.29570325 27.85727936 6.32373424 30.49075309 6.34643555 33.12426758 C6.37997529 36.90997711 6.4322932 40.69503289 6.48828125 44.48046875 C6.49467117 45.65772018 6.5010611 46.83497162 6.50764465 48.04789734 C6.52743881 49.14866104 6.54723297 50.24942474 6.56762695 51.38354492 C6.57873001 52.34951096 6.58983307 53.31547699 6.60127258 54.31071472 C7.0770793 57.51987453 8.09456432 59.39056466 10 62 C13.0338301 64.0225534 13.68758864 64.25577087 17.10424805 64.31884766 C17.92487228 64.33871735 18.74549652 64.35858704 19.59098816 64.37905884 C20.47232925 64.39061005 21.35367035 64.40216125 22.26171875 64.4140625 C23.16751175 64.43342865 24.07330475 64.4527948 25.00654602 64.4727478 C27.90010151 64.53253542 30.7936968 64.57892568 33.6875 64.625 C35.64910591 64.66318054 37.61069506 64.70223231 39.57226562 64.7421875 C44.3813744 64.83823632 49.19056166 64.92227043 54 65 C54 66.65 54 68.3 54 70 C40.14 70 26.28 70 12 70 C11.67 70.99 11.34 71.98 11 73 C5.67539399 71.1425793 3.56257933 68.60679408 1.02993774 63.81008911 C-0.99580984 58.2830257 -0.60480336 52.59228587 -0.48828125 46.77734375 C-0.47893605 45.4225852 -0.47182802 44.06780956 -0.46684265 42.71302795 C-0.44790609 39.17644193 -0.39892613 35.6409105 -0.34332275 32.10473633 C-0.29183782 28.48468282 -0.26926682 24.86445605 -0.24414062 21.24414062 C-0.19078999 14.16233343 -0.10564433 7.08123618 0 0 Z " fill="#454646" transform="translate(170,246)"/>
<path d="M0 0 C0.06969519 7.8324642 0.1229099 15.66485493 0.15543652 23.49755192 C0.17105247 27.13511722 0.19221541 30.77246942 0.22631836 34.40991211 C0.25905835 37.92421483 0.27688359 41.43831335 0.28463173 44.95275688 C0.29282327 46.93740962 0.31621919 48.92198091 0.33988953 50.9065094 C0.34108857 57.36620815 0.20845075 62.31952492 -3 68 C-2.34 67.67 -1.68 67.34 -1 67 C-2.75 70.875 -2.75 70.875 -5 72 C-5 71.34 -5 70.68 -5 70 C-5.99 70.66 -6.98 71.32 -8 72 C-10.6875 71.625 -10.6875 71.625 -13 71 C-12.67 70.34 -12.34 69.68 -12 69 C-16.50563891 67.89809875 -20.96907895 67.78198767 -25.58203125 67.68359375 C-26.39621017 67.66281265 -27.2103891 67.64203156 -28.04924011 67.62062073 C-30.63691179 67.55550537 -33.22468053 67.49641792 -35.8125 67.4375 C-37.57227545 67.39427858 -39.33204128 67.35066315 -41.09179688 67.30664062 C-45.39443309 67.1998632 -49.69716643 67.09848982 -54 67 C-54 66.67 -54 66.34 -54 66 C-52.17625854 65.99383667 -52.17625854 65.99383667 -50.31567383 65.98754883 C-45.7958767 65.9657433 -41.27694837 65.91143887 -36.75756836 65.84741211 C-34.80322611 65.82424449 -32.84875923 65.80983929 -30.89428711 65.80444336 C-28.08107957 65.79514468 -25.26982888 65.75413525 -22.45703125 65.70703125 C-21.58601273 65.7109639 -20.7149942 65.71489655 -19.81758118 65.71894836 C-15.82431766 65.62334492 -13.4602148 65.2620193 -9.94213867 63.2590332 C-6.86248523 58.09117729 -7.37320057 53.04949763 -7.46875 47.1484375 C-7.46548706 45.8974527 -7.46222412 44.6464679 -7.4588623 43.35757446 C-7.44901568 39.36292901 -7.469667 35.36948433 -7.5 31.375 C-7.53989232 26.11157932 -7.54500015 20.84956971 -7.53125 15.5859375 C-7.55086792 14.37030121 -7.57048584 13.15466492 -7.59069824 11.90219116 C-7.5871936 10.77737335 -7.58368896 9.65255554 -7.58007812 8.49365234 C-7.58849731 7.50279633 -7.5969165 6.51194031 -7.60559082 5.49105835 C-7 3 -7 3 -4.58874512 1.15664673 C-2 0 -2 0 0 0 Z " fill="#DBDBDB" transform="translate(330,244)"/>
<path d="M0 0 C0.12669211 7.33216928 0.21430617 14.66405677 0.2746582 21.99707031 C0.29981494 24.49196928 0.33394403 26.98679446 0.37719727 29.48144531 C0.43779434 33.06594028 0.46619892 36.64946163 0.48828125 40.234375 C0.51408768 41.35116638 0.5398941 42.46795776 0.56648254 43.61859131 C0.56924159 51.22224092 0.56924159 51.22224092 -1.99414062 54.72460938 C-5.93586866 56.39709047 -9.39135114 56.39928773 -13.58203125 56.171875 C-14.39621017 56.14401917 -15.2103891 56.11616333 -16.04924011 56.08746338 C-18.63816985 55.99442729 -21.22482041 55.87263884 -23.8125 55.75 C-25.57219278 55.6816907 -27.33195969 55.61526333 -29.09179688 55.55078125 C-33.39569497 55.38897648 -37.69777959 55.20138457 -42 55 C-42 54.67 -42 54.34 -42 54 C-40.88963379 53.97494385 -39.77926758 53.9498877 -38.63525391 53.92407227 C-34.52396681 53.83005085 -30.41285077 53.72981743 -26.30175781 53.62768555 C-24.52087397 53.5843167 -22.73994802 53.54264306 -20.95898438 53.50268555 C-18.40221452 53.4450301 -15.84565702 53.3813223 -13.2890625 53.31640625 C-12.49005524 53.29969376 -11.69104797 53.28298126 -10.86782837 53.26576233 C-6.80193632 53.24607009 -6.80193632 53.24607009 -3 52 C-3 36.82 -3 21.64 -3 6 C-7.71058562 6.83462035 -7.71058562 6.83462035 -11 8 C-10.505 8.99 -10.505 8.99 -10 10 C-10.33 10.66 -10.66 11.32 -11 12 C-10.01 12.33 -9.02 12.66 -8 13 C-12.56338028 14.14084507 -12.56338028 14.14084507 -14.9375 13.375 C-18.33018087 12.75814893 -20.22045927 14.14697284 -23 16 C-23.96906827 18.58414426 -23.96906827 18.58414426 -24 21 C-24.66386719 20.98839844 -25.32773437 20.97679687 -26.01171875 20.96484375 C-30.52575189 20.91871494 -34.57201068 21.08835514 -39 22 C-40.34181403 21.70263828 -41.67736928 21.37354633 -43 21 C-33.11351448 15.3205296 -23.14492499 9.92252662 -12.890625 4.93505859 C-11.5388388 4.26649698 -10.19595213 3.57981896 -8.859375 2.88134766 C-8.15296875 2.51444824 -7.4465625 2.14754883 -6.71875 1.76953125 C-6.07873047 1.43155518 -5.43871094 1.0935791 -4.77929688 0.74536133 C-3 0 -3 0 0 0 Z " fill="#526486" transform="translate(319,250)"/>
<path d="M0 0 C0.495 1.485 0.495 1.485 1 3 C-0.62170379 4.00533667 -2.24747237 5.00411907 -3.875 6 C-4.77992188 6.556875 -5.68484375 7.11375 -6.6171875 7.6875 C-9 9 -9 9 -11 9 C-11 23.52 -11 38.04 -11 53 C-11.33 53 -11.66 53 -12 53 C-12.33 51.35 -12.66 49.7 -13 48 C-13.99 50.31 -14.98 52.62 -16 55 C-34.315 54.505 -34.315 54.505 -53 54 C-53 53.67 -53 53.34 -53 53 C-41.12 53 -29.24 53 -17 53 C-17.03959518 43.8301709 -17.03959518 43.8301709 -17.09008789 34.66040039 C-17.09258545 33.52594482 -17.09508301 32.39148926 -17.09765625 31.22265625 C-17.10289307 30.05484619 -17.10812988 28.88703613 -17.11352539 27.68383789 C-17 25 -17 25 -16 24 C-15.86379356 20.26188984 -15.75203126 16.52969694 -15.74609375 12.7890625 C-15.6111578 8.42850085 -15.42502289 6.53991299 -12.64453125 3.0078125 C-8.84429406 0.12255118 -4.66298992 -2.24514329 0 0 Z " fill="#A5A8A8" transform="translate(285,263)"/>
<path d="M0 0 C0.08636719 0.67546875 0.17273438 1.3509375 0.26171875 2.046875 C0.40222656 2.93890625 0.54273438 3.8309375 0.6875 4.75 C0.81511719 5.63171875 0.94273437 6.5134375 1.07421875 7.421875 C2.35805738 10.99712183 3.76335556 11.99715692 7 14 C10.15074945 14.59812663 13.25656459 14.6048605 16.45703125 14.609375 C17.35999435 14.62591125 18.26295746 14.64244751 19.19328308 14.65948486 C22.06642489 14.70792057 24.93903757 14.72932588 27.8125 14.75 C29.76500051 14.7781634 31.71747643 14.80809135 33.66992188 14.83984375 C38.44657102 14.91367837 43.22292719 14.96328007 48 15 C48 16.65 48 18.3 48 20 C34.14 20 20.28 20 6 20 C5.67 20.99 5.34 21.98 5 23 C4.773125 22.443125 4.54625 21.88625 4.3125 21.3125 C2.6407496 18.36703501 0.41718785 16.35675815 -2 14 C-4.07358419 10.88962372 -4.29487123 10.00438748 -4.3125 6.4375 C-4.32925781 5.65246094 -4.34601563 4.86742187 -4.36328125 4.05859375 C-4.24339844 3.37925781 -4.12351563 2.69992187 -4 2 C-1 0 -1 0 0 0 Z " fill="#3A3C3D" transform="translate(176,296)"/>
<path d="M0 0 C2 2 2 2 2.22705078 3.97119141 C2.21657715 4.75671387 2.20610352 5.54223633 2.1953125 6.3515625 C2.18886719 7.20234375 2.18242187 8.053125 2.17578125 8.9296875 C2.15902344 9.81914062 2.14226562 10.70859375 2.125 11.625 C2.11597656 12.5221875 2.10695312 13.419375 2.09765625 14.34375 C2.0740497 16.56276586 2.0411231 18.78125077 2 21 C2.66 21 3.32 21 4 21 C4 22.32 4 23.64 4 25 C3.01 25 2.02 25 1 25 C1.66 25.33 2.32 25.66 3 26 C3 26.66 3 27.32 3 28 C4.1446875 28.433125 4.1446875 28.433125 5.3125 28.875 C8 30 8 30 11 32 C10.67 36.62 10.34 41.24 10 46 C9.34 46 8.68 46 8 46 C7.67 59.86 7.34 73.72 7 88 C6.67 88 6.34 88 6 88 C6 70.18 6 52.36 6 34 C4.02 33.34 2.04 32.68 0 32 C0.03814175 39.8328079 0.09762567 47.66514269 0.18390274 55.49755192 C0.22331 59.13502291 0.25553108 62.77225428 0.27099609 66.40991211 C0.28620792 69.92451152 0.32073154 73.43845188 0.36830902 76.95275688 C0.39023371 78.93723893 0.39246984 80.92190714 0.39434814 82.9065094 C0.50738976 89.9046687 1.01080377 94.22797148 5 100 C4.505 100.99 4.505 100.99 4 102 C-2.18266963 96.02341936 -2.09115049 87.28165669 -2.24291992 79.14599609 C-2.24929809 76.60514784 -2.24462352 74.06425433 -2.23046875 71.5234375 C-2.22927167 70.14498946 -2.2288249 68.76654058 -2.2290802 67.38809204 C-2.22752659 64.51209325 -2.21933067 61.63622088 -2.20581055 58.76025391 C-2.18891712 55.12624593 -2.18508626 51.49237601 -2.18562126 47.85833359 C-2.18430317 9.7383039 -2.18430317 9.7383039 0 0 Z " fill="#818384" transform="translate(170,214)"/>
<path d="M0 0 C0.99 0.33 1.98 0.66 3 1 C3.00410889 2.25135742 3.00821777 3.50271484 3.01245117 4.79199219 C3.03422973 9.43661642 3.08850618 14.08039195 3.15258789 18.72460938 C3.17577903 20.73429223 3.19016622 22.74409682 3.19555664 24.75390625 C3.20483807 27.64400183 3.24581012 30.53217989 3.29296875 33.421875 C3.2890361 34.31992859 3.28510345 35.21798218 3.28105164 36.14324951 C3.3758435 40.19959291 3.46385732 42.31261085 6.0078125 45.57421875 C9.91072345 47.43396091 13.35247465 47.50207004 17.58203125 47.390625 C18.39621017 47.38496521 19.2103891 47.37930542 20.04924011 47.37347412 C22.63760353 47.35116774 25.2245584 47.30098445 27.8125 47.25 C29.57224556 47.22992747 31.33201293 47.21167802 33.09179688 47.1953125 C37.39507005 47.15132207 41.6972966 47.08233627 46 47 C46 47.66 46 48.32 46 49 C46.66 49.66 47.32 50.32 48 51 C42.12929135 51.26719691 36.25857671 51.50015628 30.38525391 51.7019043 C28.38879541 51.7752535 26.39265354 51.85784031 24.39697266 51.94995117 C21.52280151 52.08098588 18.64911725 52.17840927 15.7734375 52.26953125 C14.88570648 52.31721146 13.99797546 52.36489166 13.08334351 52.41401672 C8.81375027 52.51764713 5.90286962 52.40892121 2.45166016 49.7331543 C-0.85263144 46.04947132 -1.14950034 43.42556827 -1.02172852 38.59863281 C-1.00163223 37.7380426 -0.98153595 36.87745239 -0.96083069 35.99078369 C-0.93379562 35.07085632 -0.90676056 34.15092896 -0.87890625 33.203125 C-0.85529526 32.25435486 -0.83168427 31.30558472 -0.80735779 30.32806396 C-0.73087006 27.30188479 -0.64678153 24.27597116 -0.5625 21.25 C-0.50926442 19.19662752 -0.45652412 17.14324213 -0.40429688 15.08984375 C-0.27527502 10.05972812 -0.13943665 5.02983727 0 0 Z " fill="#686F6C" transform="translate(177,259)"/>
<path d="M0 0 C0.33 0 0.66 0 1 0 C1 4.95 1 9.9 1 15 C0.34 15 -0.32 15 -1 15 C-1 15.66 -1 16.32 -1 17 C5.27 17 11.54 17 18 17 C18 17.33 18 17.66 18 18 C-4.11 18.33 -26.22 18.66 -49 19 C-49.33 19.66 -49.66 20.32 -50 21 C-50.66 20.67 -51.32 20.34 -52 20 C-54.26841728 19.92591109 -56.53906306 19.9166054 -58.80859375 19.9375 C-59.83062645 19.94317993 -59.83062645 19.94317993 -60.87330627 19.94897461 C-63.78499854 19.96524858 -66.69654961 19.99299968 -69.6081543 20.02050781 C-89.1978672 20.18974939 -89.1978672 20.18974939 -95 19 C-95.66 18.34 -96.32 17.68 -97 17 C-86.44 16.67 -75.88 16.34 -65 16 C-64.34 11.38 -63.68 6.76 -63 2 C-62.34 2.33 -61.68 2.66 -61 3 C-60.875 9.625 -60.875 9.625 -62 13 C-60.02 12.67 -58.04 12.34 -56 12 C-56.33 13.65 -56.66 15.3 -57 17 C-50.64610231 16.88244052 -44.29237754 16.75760829 -37.9387207 16.62768555 C-35.7766444 16.58433687 -33.61453387 16.54266175 -31.45239258 16.50268555 C-28.34706298 16.44498156 -25.24190564 16.38128728 -22.13671875 16.31640625 C-21.16788254 16.29969376 -20.19904633 16.28298126 -19.20085144 16.26576233 C-18.3001442 16.24581711 -17.39943695 16.22587189 -16.47143555 16.20532227 C-15.67867722 16.18977798 -14.88591888 16.1742337 -14.06913757 16.15821838 C-11.80260226 16.06918774 -11.80260226 16.06918774 -9 15 C-9 11.04 -9 7.08 -9 3 C-8.67 3 -8.34 3 -8 3 C-8 6.3 -8 9.6 -8 13 C-5.36 13 -2.72 13 0 13 C0 8.71 0 4.42 0 0 Z " fill="#8A8B8C" transform="translate(281,186)"/>
<path d="M0 0 C-0.70763533 4.4816904 -3.15644381 6.28859688 -6.40625 9.21875 C-8.17265639 11.1929689 -8.47872663 12.45097324 -9 15 C-10.94945654 17.29757378 -12.72964068 18.84454339 -15.34375 20.34765625 C-18.17728154 22.11027955 -20.37260481 24.03749399 -22.75 26.375 C-23.52859375 27.12523437 -24.3071875 27.87546875 -25.109375 28.6484375 C-27.14839313 31.18457162 -27.66101812 32.80227089 -28 36 C-31.71599191 36.20086443 -32.77208445 36.1519437 -36 34 C-35.44113306 30.52757342 -34.46501615 29.2304405 -31.6875 27.125 C-28.35639525 24.43162202 -26.31384077 21.6250172 -24 18 C-19.63829787 13.21276596 -19.63829787 13.21276596 -16 12 C-15.319375 10.824375 -15.319375 10.824375 -14.625 9.625 C-12.75255122 6.60027505 -11.07568947 5.69162921 -8 4 C-6.98131338 3.01904252 -5.97648017 2.02297922 -5 1 C-3 0 -3 0 0 0 Z " fill="#CDD3D0" transform="translate(247,231)"/>
<path d="M0 0 C5.30222322 0.09385141 10.60400682 0.20001498 15.90576172 0.31738281 C17.70777715 0.35556522 19.50986601 0.39043651 21.31201172 0.421875 C23.90879481 0.46775963 26.5050771 0.52571435 29.1015625 0.5859375 C30.30191635 0.60326431 30.30191635 0.60326431 31.52651978 0.62094116 C36.0483683 0.73910971 39.73954771 1.30177776 44 3 C43.67 3.66 43.34 4.32 43 5 C46.465 4.505 46.465 4.505 50 4 C49.67 4.99 49.34 5.98 49 7 C44.0575078 8.32594075 39.20700141 8.04687564 34.140625 7.9140625 C33.19564148 7.89282318 32.25065796 7.87158386 31.27703857 7.84970093 C29.28667827 7.8035613 27.29638068 7.75464361 25.30615234 7.703125 C22.24720173 7.62492847 19.18814658 7.5579565 16.12890625 7.4921875 C14.1952964 7.44598146 12.26170186 7.39912914 10.328125 7.3515625 C8.94853607 7.32178818 8.94853607 7.32178818 7.54107666 7.29141235 C1.11512268 7.11512268 1.11512268 7.11512268 0 6 C-0.04080783 4.00041636 -0.04254356 1.99954746 0 0 Z " fill="#9DA0A1" transform="translate(275,310)"/>
<path d="M0 0 C0.33 0 0.66 0 1 0 C1.10141744 7.88359592 1.17147331 15.76702362 1.21972656 23.65112305 C1.23758325 26.33327823 1.26541436 29.0150546 1.30175781 31.69702148 C1.35027542 35.55203066 1.37296994 39.40645998 1.390625 43.26171875 C1.41127014 44.46084396 1.43191528 45.65996918 1.45318604 46.89543152 C1.45542666 55.20742613 1.45542666 55.20742613 -0.86035156 59.23754883 C-3.31665783 61.26083443 -4.82102816 61.91634285 -8 62 C-8.66 61.34 -9.32 60.68 -10 60 C-9.02659668 59.22962402 -8.05319336 58.45924805 -7.05029297 57.66552734 C-3.52233081 54.11423296 -3.27142014 51.1834239 -3.16775513 46.30679321 C-3.18139603 44.84395401 -3.18139603 44.84395401 -3.1953125 43.3515625 C-3.18160614 42.33903412 -3.16789978 41.32650574 -3.15377808 40.28329468 C-3.11652002 37.06340941 -3.12019034 33.84507 -3.125 30.625 C-3.10687039 28.43617385 -3.08606688 26.24736811 -3.0625 24.05859375 C-3.01068877 18.7055779 -2.99243473 13.35324362 -3 8 C-2.34 8 -1.68 8 -1 8 C-0.67 5.36 -0.34 2.72 0 0 Z " fill="#71777B" transform="translate(322,248)"/>
<path d="M0 0 C1.81242052 -0.02687279 3.62495233 -0.04633715 5.4375 -0.0625 C6.44683594 -0.07410156 7.45617187 -0.08570313 8.49609375 -0.09765625 C11 0 11 0 12 1 C12.09346915 2.65738443 12.11744977 4.31874644 12.11352539 5.97875977 C12.11344986 7.03978409 12.11337433 8.10080841 12.11329651 9.19398499 C12.10813522 10.348134 12.10297394 11.50228302 12.09765625 12.69140625 C12.0962413 13.86638168 12.09482635 15.04135712 12.09336853 16.25193787 C12.08774992 20.02215064 12.07519426 23.79230504 12.0625 27.5625 C12.0574874 30.11132727 12.05292408 32.66015547 12.04882812 35.20898438 C12.03862331 41.47269709 12.01905152 47.73628284 12 54 C23.55 54 35.1 54 47 54 C47 54.33 47 54.66 47 55 C34.79 55 22.58 55 10 55 C8.88185847 40.46416017 8.88185847 40.46416017 8.7890625 33.6875 C8.76106124 32.24868523 8.73239756 30.80988322 8.703125 29.37109375 C8.6616062 27.168126 8.62459252 24.96541692 8.59863281 22.76220703 C8.57102281 20.59101347 8.52525526 18.42080955 8.4765625 16.25 C8.45674316 14.97640625 8.43692383 13.7028125 8.41650391 12.390625 C7.97306022 8.78069187 7.03160858 6.96165685 5 4 C4.67 3.01 4.34 2.02 4 1 C1.98491642 0.26676204 1.98491642 0.26676204 0 0 Z " fill="#636767" transform="translate(220,263)"/>
<path d="M0 0 C3.44149381 1.7207469 5.06373213 2.81781715 7.66699219 5.43994141 C8.71762848 6.49080429 8.71762848 6.49080429 9.78948975 7.56289673 C10.53442688 8.31815643 11.27936401 9.07341614 12.046875 9.8515625 C12.81807678 10.62559418 13.58927856 11.39962585 14.3838501 12.19711304 C16.84396856 14.66841923 19.29703848 17.14659183 21.75 19.625 C23.41750894 21.30254052 25.08547232 22.97962945 26.75390625 24.65625 C30.8412237 28.76560919 34.92277696 32.88062647 39 37 C40.1446875 36.4740625 40.1446875 36.4740625 41.3125 35.9375 C44 35 44 35 47 36 C44.59688219 38.21826259 43.30074854 38.96867203 40 39.3125 C33.00947146 38.58431994 29.47913195 33.80054531 25.1875 28.625 C22.39951725 25.32231274 19.31726642 22.57102413 16.03515625 19.76953125 C13.96054213 17.9656921 11.9675644 16.10736587 10 14.1875 C9.4225 13.62417969 8.845 13.06085938 8.25 12.48046875 C7 11 7 11 7 9 C5.68 8.67 4.36 8.34 3 8 C3 7.34 3 6.68 3 6 C0.760165 5.04979584 0.760165 5.04979584 -2 5 C-4.83411155 7.333492 -4.83411155 7.333492 -7 10 C-7.66 9.67 -8.32 9.34 -9 9 C-6.03 6.03 -3.06 3.06 0 0 Z " fill="#606664" transform="translate(249,220)"/>
<path d="M0 0 C0 0.66 0 1.32 0 2 C0.66 2 1.32 2 2 2 C2 2.66 2 3.32 2 4 C2.99 4.33 3.98 4.66 5 5 C6.1875 8.0625 6.1875 8.0625 7 11 C6.34 11.33 5.68 11.66 5 12 C5 11.34 5 10.68 5 10 C4.34 10 3.68 10 3 10 C3 9.34 3 8.68 3 8 C2.34 8 1.68 8 1 8 C1 7.34 1 6.68 1 6 C-4.26964527 8.63482263 -7.97903554 12.79943911 -12 17 C-12 14 -12 14 -10.46875 12.17578125 C-9.49421875 11.25345703 -9.49421875 11.25345703 -8.5 10.3125 C-7.52546875 9.37857422 -7.52546875 9.37857422 -6.53125 8.42578125 C-6.0259375 7.95527344 -5.520625 7.48476562 -5 7 C-5.495 6.01 -5.495 6.01 -6 5 C-7.65 5.33 -9.3 5.66 -11 6 C-11.33 6.99 -11.66 7.98 -12 9 C-12.804375 9.28875 -13.60875 9.5775 -14.4375 9.875 C-17.21840072 10.73721759 -17.21840072 10.73721759 -17.9375 13.375 C-19.40581573 17.00260357 -21.75128068 17.8978875 -25 20 C-26.71140469 21.96185416 -28.37873325 23.96302383 -30 26 C-31.66666667 27.66666667 -33.33333333 29.33333333 -35 31 C-36.70768674 32.969688 -38.35399152 34.97776101 -40 37 C-41.98 36.34 -43.96 35.68 -46 35 C-46 34.34 -46 33.68 -46 33 C-44.906875 32.9175 -43.81375 32.835 -42.6875 32.75 C-38.96556057 32.37989701 -38.96556057 32.37989701 -37.1875 29.9375 C-36.795625 29.298125 -36.40375 28.65875 -36 28 C-35.34 28 -34.68 28 -34 28 C-33.77699219 27.45085937 -33.55398437 26.90171875 -33.32421875 26.3359375 C-29.1100361 18.90206958 -20.66950157 12.25045868 -14 7 C-13.34 7 -12.68 7 -12 7 C-11.9175 6.401875 -11.835 5.80375 -11.75 5.1875 C-9.78755664 -0.53629314 -5.37405624 -0.31004171 0 0 Z " fill="#9A9F9C" transform="translate(251,227)"/>
<path d="M0 0 C6.90598399 -0.49328457 11.28909345 2.47267536 17 6 C17.33 5.01 17.66 4.02 18 3 C20 4 20 4 22 6 C22 7.32 22 8.64 22 10 C24.580947 10.5161894 27.15012816 11.02388403 29.75 11.4375 C30.4925 11.623125 31.235 11.80875 32 12 C32.495 12.99 32.495 12.99 33 14 C33.94875 13.95875 34.8975 13.9175 35.875 13.875 C39 14 39 14 41 16 C40.505 17.485 40.505 17.485 40 19 C40.495 19.99 40.495 19.99 41 21 C36.61711873 19.68811717 32.42053807 18.39844682 28.5 16 C25.22666433 14.004248 21.91448887 12.92379208 18.26953125 11.78125 C14.66034821 10.5388462 11.34754646 8.81931873 8 7 C7.01 6.46375 6.02 5.9275 5 5.375 C4.01 4.694375 4.01 4.694375 3 4 C3 3.34 3 2.68 3 2 C2.01 1.67 1.02 1.34 0 1 C0 0.67 0 0.34 0 0 Z " fill="#4D5250" transform="translate(170,238)"/>
<path d="M0 0 C3.07536854 0.65900754 5.07735566 1.53867783 8 3 C7.67 8.28 7.34 13.56 7 19 C4.36 19 1.72 19 -1 19 C-1.04898437 18.31292969 -1.09796875 17.62585938 -1.1484375 16.91796875 C-1.22320312 16.01691406 -1.29796875 15.11585938 -1.375 14.1875 C-1.44460938 13.29417969 -1.51421875 12.40085938 -1.5859375 11.48046875 C-1.86645036 8.75601501 -1.86645036 8.75601501 -4 6 C-3.01 5.67 -2.02 5.34 -1 5 C-0.67 3.35 -0.34 1.7 0 0 Z " fill="#DBDCDC" transform="translate(274,180)"/>
<path d="M0 0 C0.66 0.33 1.32 0.66 2 1 C2.125 7.625 2.125 7.625 1 11 C2.98 10.67 4.96 10.34 7 10 C6.67 11.65 6.34 13.3 6 15 C6.66 15.33 7.32 15.66 8 16 C7.67 16.66 7.34 17.32 7 18 C2.56251426 18.02939331 -1.87494593 18.04692963 -6.3125 18.0625 C-8.17745117 18.07506836 -8.17745117 18.07506836 -10.08007812 18.08789062 C-26.27696229 18.13040213 -26.27696229 18.13040213 -32 17 C-32.66 16.34 -33.32 15.68 -34 15 C-23.44 14.67 -12.88 14.34 -2 14 C-1.34 9.38 -0.68 4.76 0 0 Z " fill="#737676" transform="translate(218,188)"/>
<path d="M0 0 C0.33 0.66 0.66 1.32 1 2 C-0.62339805 3.70884005 -2.29319053 5.37446717 -4 7 C-4.66 7 -5.32 7 -6 7 C-6.33 7.99 -6.66 8.98 -7 10 C-8.6015625 11.54296875 -8.6015625 11.54296875 -10.625 13.1875 C-13.60468058 15.69810743 -16.18522666 18.2637705 -18.6875 21.25 C-21.19086125 24.1743811 -23.31180947 26.60446845 -27 28 C-29.3125 27.1875 -29.3125 27.1875 -31 26 C-30.4225 25.7525 -29.845 25.505 -29.25 25.25 C-26.86550111 24.06009525 -26.86550111 24.06009525 -24.875 21.875 C-24.25625 21.25625 -23.6375 20.6375 -23 20 C-22.34 20 -21.68 20 -21 20 C-20.87625 19.401875 -20.7525 18.80375 -20.625 18.1875 C-20 16 -20 16 -18 13 C-17.34 13 -16.68 13 -16 13 C-15.87625 11.865625 -15.7525 10.73125 -15.625 9.5625 C-15.41875 8.386875 -15.2125 7.21125 -15 6 C-14.34 5.67 -13.68 5.34 -13 5 C-12.67 5.66 -12.34 6.32 -12 7 C-11.34 6.67 -10.68 6.34 -10 6 C-8.67139075 5.64830932 -7.33841672 5.31229724 -6 5 C-5.67 3.68 -5.34 2.36 -5 1 C-4.67 1.99 -4.34 2.98 -4 4 C-2.68 2.68 -1.36 1.36 0 0 Z " fill="#636665" transform="translate(239,230)"/>
<path d="M0 0 C0.66 0 1.32 0 2 0 C2.12669211 7.33216928 2.21430617 14.66405677 2.2746582 21.99707031 C2.29981494 24.49196928 2.33394403 26.98679446 2.37719727 29.48144531 C2.43779434 33.06594028 2.46619892 36.64946163 2.48828125 40.234375 C2.51408768 41.35116638 2.5398941 42.46795776 2.56648254 43.61859131 C2.56924159 51.22224092 2.56924159 51.22224092 0.00585938 54.72460938 C-3.93586866 56.39709047 -7.39135114 56.39928773 -11.58203125 56.171875 C-12.39621017 56.14401917 -13.2103891 56.11616333 -14.04924011 56.08746338 C-16.63816985 55.99442729 -19.22482041 55.87263884 -21.8125 55.75 C-23.57219278 55.6816907 -25.33195969 55.61526333 -27.09179688 55.55078125 C-31.39569497 55.38897648 -35.69777959 55.20138457 -40 55 C-40 54.67 -40 54.34 -40 54 C-38.88963379 53.97494385 -37.77926758 53.9498877 -36.63525391 53.92407227 C-32.52396681 53.83005085 -28.41285077 53.72981743 -24.30175781 53.62768555 C-22.52087397 53.5843167 -20.73994802 53.54264306 -18.95898438 53.50268555 C-16.40221452 53.4450301 -13.84565702 53.3813223 -11.2890625 53.31640625 C-10.49005524 53.29969376 -9.69104797 53.28298126 -8.86782837 53.26576233 C-4.80193632 53.24607009 -4.80193632 53.24607009 -1 52 C-0.85424231 47.32683792 -0.71203092 42.65358434 -0.57275391 37.98022461 C-0.52516635 36.3988166 -0.47669961 34.81743474 -0.42724609 33.23608398 C-0.08146749 22.15352681 0.06356614 11.08787688 0 0 Z " fill="#3A4D74" transform="translate(317,250)"/>
<path d="M0 0 C0.495 0.99 0.495 0.99 1 2 C1.66 2.33 2.32 2.66 3 3 C3.495 3.495 3.495 3.495 4 4 C4.66 3.34 5.32 2.68 6 2 C6.495 2.99 6.495 2.99 7 4 C6.67 4.99 6.34 5.98 6 7 C6 7.99 6 8.98 6 10 C5.01 10.66 4.02 11.32 3 12 C3 11.34 3 10.68 3 10 C2.01 10.66 1.02 11.32 0 12 C-2.6875 11.625 -2.6875 11.625 -5 11 C-4.67 10.34 -4.34 9.68 -4 9 C-8.50563891 7.89809875 -12.96907895 7.78198767 -17.58203125 7.68359375 C-18.39621017 7.66281265 -19.2103891 7.64203156 -20.04924011 7.62062073 C-22.63691179 7.55550537 -25.22468053 7.49641792 -27.8125 7.4375 C-29.57227545 7.39427858 -31.33204128 7.35066315 -33.09179688 7.30664062 C-37.39443309 7.1998632 -41.69716643 7.09848982 -46 7 C-46 6.67 -46 6.34 -46 6 C-44.17625854 5.99383667 -44.17625854 5.99383667 -42.31567383 5.98754883 C-37.7958767 5.9657433 -33.27694837 5.91143887 -28.75756836 5.84741211 C-26.80322611 5.82424449 -24.84875923 5.80983929 -22.89428711 5.80444336 C-20.08107957 5.79514468 -17.26982888 5.75413525 -14.45703125 5.70703125 C-13.58601273 5.7109639 -12.7149942 5.71489655 -11.81758118 5.71894836 C-7.6314128 5.61872655 -4.96709114 5.49254439 -1.90893555 2.45581055 C-1.27898682 1.64539307 -0.64903809 0.83497559 0 0 Z " fill="#C6C6C6" transform="translate(322,304)"/>
<path d="M0 0 C14.19 0 28.38 0 43 0 C43 0.66 43 1.32 43 2 C37.68942541 2.8886833 32.60114055 3.13355881 27.22265625 3.09765625 C26.41130722 3.0962413 25.59995819 3.09482635 24.76402283 3.09336853 C22.19680953 3.08781357 19.62968652 3.07526967 17.0625 3.0625 C15.31185023 3.05747917 13.56119907 3.05291729 11.81054688 3.04882812 C7.5403303 3.03785893 3.27018041 3.02062582 -1 3 C-0.67 2.01 -0.34 1.02 0 0 Z " fill="#6A6A6B" transform="translate(182,316)"/>
<path d="M0 0 C12.87 0 25.74 0 39 0 C39 0.66 39 1.32 39 2 C39.66 2.66 40.32 3.32 41 4 C27.8 4 14.6 4 1 4 C0.67 2.68 0.34 1.36 0 0 Z " fill="#5B6463" transform="translate(184,306)"/>
<path d="M0 0 C0.33 0 0.66 0 1 0 C1.16907864 4.67707567 1.32946391 9.35434377 1.48217773 14.03198242 C1.53519053 15.61962689 1.59048174 17.20719713 1.64819336 18.79467773 C2.27822261 36.21087753 2.27822261 36.21087753 1 43 C0.01 43.495 0.01 43.495 -1 44 C-1.495 40.535 -1.495 40.535 -2 37 C-14.87 37 -27.74 37 -41 37 C-41 36.67 -41 36.34 -41 36 C-28.79 35.67 -16.58 35.34 -4 35 C-3.67 34.01 -3.34 33.02 -3 32 C-2.01 32 -1.02 32 0 32 C0 21.44 0 10.88 0 0 Z " fill="#979F99" transform="translate(226,274)"/>
<path d="M0 0 C0.33 0.99 0.66 1.98 1 3 C-0.62170379 4.00533667 -2.24747237 5.00411907 -3.875 6 C-4.77992188 6.556875 -5.68484375 7.11375 -6.6171875 7.6875 C-9 9 -9 9 -11 9 C-11.33 10.65 -11.66 12.3 -12 14 C-12.99 14.33 -13.98 14.66 -15 15 C-15.46966181 10.20944951 -15.77571545 7.07231254 -12.875 3.0625 C-8.95155503 0.24785469 -4.7476134 -2.28588793 0 0 Z " fill="#B7BFBF" transform="translate(285,263)"/>
<path d="M0 0 C-0.70763533 4.4816904 -3.15644381 6.28859688 -6.40625 9.21875 C-8.1755385 11.19619009 -8.45655124 12.45355438 -9 15 C-11.0625 17.25 -11.0625 17.25 -13 19 C-13.66 18.67 -14.32 18.34 -15 18 C-15.61269147 10.7702407 -15.61269147 10.7702407 -12.8125 7.25 C-11.4203125 6.13625 -11.4203125 6.13625 -10 5 C-9.113125 4.2575 -8.22625 3.515 -7.3125 2.75 C-4.47013136 0.59901833 -3.60026968 0 0 0 Z " fill="#C8CAC8" transform="translate(247,231)"/>
<path d="M0 0 C-0.33 4.29 -0.66 8.58 -1 13 C-1.66 13 -2.32 13 -3 13 C-3.33 26.86 -3.66 40.72 -4 55 C-4.33 55 -4.66 55 -5 55 C-5.33 36.85 -5.66 18.7 -6 0 C-4 -1 -4 -1 0 0 Z " fill="#929993" transform="translate(181,247)"/>
<path d="M0 0 C3.09179136 1.3761536 5.19638753 2.95158445 7.57519531 5.34814453 C8.25559875 6.02869904 8.9360022 6.70925354 9.63702393 7.41043091 C10.36008728 8.14381683 11.08315063 8.87720276 11.828125 9.6328125 C12.57713074 10.38464813 13.32613647 11.13648376 14.09783936 11.91110229 C16.4866302 14.31107901 18.86836897 16.71792009 21.25 19.125 C22.86933169 20.75436352 24.48911802 22.38327534 26.109375 24.01171875 C30.07820505 28.00258806 34.04126899 31.99911415 38 36 C39.1446875 35.4740625 39.1446875 35.4740625 40.3125 34.9375 C43 34 43 34 46 35 C43.77000291 37.05845885 42.15418696 37.96230985 39.1875 38.6875 C34.95480033 37.77456478 33.83425561 35.93394606 31.19140625 32.62890625 C28.42825178 29.31410597 25.43105429 26.29319391 22.375 23.25 C21.82448975 22.69546143 21.27397949 22.14092285 20.70678711 21.56958008 C18.25089684 19.12034834 15.84088436 16.8756239 13.1015625 14.734375 C12.40804688 14.16203125 11.71453125 13.5896875 11 13 C11 12.34 11 11.68 11 11 C10.34 11 9.68 11 9 11 C5.28153127 7.67294903 2.62840242 4.18597423 0 0 Z " fill="#414644" transform="translate(250,221)"/>
<path d="M0 0 C0.55341064 0.37342529 1.10682129 0.74685059 1.67700195 1.1315918 C1.34700195 1.7915918 1.01700195 2.4515918 0.67700195 3.1315918 C1.66700195 3.4615918 2.65700195 3.7915918 3.67700195 4.1315918 C-0.88637833 5.27243687 -0.88637833 5.27243687 -3.26049805 4.5065918 C-6.65317892 3.88974073 -8.54345731 5.27856464 -11.32299805 7.1315918 C-12.29206632 9.71573605 -12.29206632 9.71573605 -12.32299805 12.1315918 C-13.01006836 12.11999023 -13.69713867 12.10838867 -14.4050293 12.09643555 C-15.30608398 12.08741211 -16.20713867 12.07838867 -17.13549805 12.0690918 C-18.02881836 12.05749023 -18.92213867 12.04588867 -19.8425293 12.03393555 C-22.45713596 12.02149213 -22.45713596 12.02149213 -25.32299805 13.1315918 C-23.82790451 8.64631119 -20.68272283 7.93830334 -16.61010742 5.86010742 C-15.58723633 5.35157227 -14.56436523 4.84303711 -13.51049805 4.3190918 C-12.49922852 3.7912207 -11.48795898 3.26334961 -10.44604492 2.71948242 C-9.47086914 2.2302832 -8.49569336 1.74108398 -7.4909668 1.23706055 C-6.14941528 0.55873169 -6.14941528 0.55873169 -4.78076172 -0.13330078 C-2.32299805 -0.8684082 -2.32299805 -0.8684082 0 0 Z " fill="#2E4880" transform="translate(307.322998046875,258.868408203125)"/>
<path d="M0 0 C9.88739059 1.68140468 19.20378835 6.33383806 28 11 C28 11.33 28 11.66 28 12 C23.66831683 12.26252625 20.1196377 11.29243536 16 10 C16.33 10.66 16.66 11.32 17 12 C11.52067211 10.45454854 6.88570819 7.84456788 2 5 C2.66 4.67 3.32 4.34 4 4 C4.66 4.33 5.32 4.66 6 5 C6 4.34 6 3.68 6 3 C4.02 2.34 2.04 1.68 0 1 C0 0.67 0 0.34 0 0 Z " fill="#557057" transform="translate(181,247)"/>
<path d="M0 0 C0.33 0 0.66 0 1 0 C1 12.54 1 25.08 1 38 C0.67 38 0.34 38 0 38 C-1.64914172 31.03059185 -2.31242671 24.46556041 -2.25 17.3125 C-2.25773437 16.41466797 -2.26546875 15.51683594 -2.2734375 14.59179688 C-2.25804465 9.33898845 -1.71344718 4.97035671 0 0 Z " fill="#919799" transform="translate(273,278)"/>
<path d="M0 0 C0.33 0.99 0.66 1.98 1 3 C15.19 3 29.38 3 44 3 C44.33 2.34 44.66 1.68 45 1 C45.495 2.485 45.495 2.485 46 4 C43.12586454 4.82130142 40.58400178 5.12230589 37.59863281 5.11352539 C36.3077475 5.11341209 36.3077475 5.11341209 34.99078369 5.11329651 C34.07085632 5.10813522 33.15092896 5.10297394 32.203125 5.09765625 C30.77996979 5.09553383 30.77996979 5.09553383 29.32806396 5.09336853 C26.30201038 5.08777742 23.27603117 5.07522652 20.25 5.0625 C18.19661565 5.05748385 16.14323014 5.05292115 14.08984375 5.04882812 C9.05986724 5.03781089 4.02994622 5.02055233 -1 5 C-0.67 3.35 -0.34 1.7 0 0 Z " fill="#D6D7D7" transform="translate(227,198)"/>
<path d="M0 0 C0.33 0 0.66 0 1 0 C1.33 4.95 1.66 9.9 2 15 C5.39539063 14.96519531 5.39539063 14.96519531 8.859375 14.9296875 C11.05696045 14.91408031 13.25453967 14.90194166 15.45214844 14.89013672 C16.97691623 14.88009256 18.50166484 14.86645469 20.02636719 14.84912109 C22.22075138 14.82480262 24.41488042 14.81350111 26.609375 14.8046875 C27.92905273 14.79421387 29.24873047 14.78374023 30.60839844 14.77294922 C34 15 34 15 38 17 C24.8 17 11.6 17 -2 17 C-2 16.34 -2 15.68 -2 15 C-1.34 15 -0.68 15 0 15 C0 10.05 0 5.1 0 0 Z " fill="#E7E7E7" transform="translate(282,186)"/>
<path d="M0 0 C2.12563103 0.11376617 4.2505261 0.24135631 6.375 0.375 C8.15003906 0.47941406 8.15003906 0.47941406 9.9609375 0.5859375 C13 1 13 1 15 3 C14.34 4.32 13.68 5.64 13 7 C11.02090602 7.02686553 9.04171029 7.04633375 7.0625 7.0625 C5.96035156 7.07410156 4.85820312 7.08570313 3.72265625 7.09765625 C1 7 1 7 0 6 C-0.04080783 4.00041636 -0.04254356 1.99954746 0 0 Z " fill="#898B8B" transform="translate(275,310)"/>
<path d="M0 0 C1.98 0.66 3.96 1.32 6 2 C6 2.66 6 3.32 6 4 C5.01 4 4.02 4 3 4 C6.96 5.98 10.92 7.96 15 10 C14.67 11.65 14.34 13.3 14 15 C13.01 15.33 12.02 15.66 11 16 C10.34 14.02 9.68 12.04 9 10 C7.35 9.67 5.7 9.34 4 9 C3.01 10.32 2.02 11.64 1 13 C-1.30143236 9.54785147 -1.13833854 8.76520676 -0.625 4.8125 C-0.51414063 3.91144531 -0.40328125 3.01039063 -0.2890625 2.08203125 C-0.19367188 1.39496094 -0.09828125 0.70789063 0 0 Z " fill="#55A558" transform="translate(181,248)"/>
<path d="M0 0 C5.6322746 -1.26438818 11.7446245 -0.27259481 17 2 C16.67 2.99 16.34 3.98 16 5 C9.73 5 3.46 5 -3 5 C-2.01 3.35 -1.02 1.7 0 0 Z " fill="#AEAFAE" transform="translate(302,311)"/>
<path d="M0 0 C0.99 0 1.98 0 3 0 C3.0926956 8.53619235 3.16376219 17.07217429 3.20724869 25.60874557 C3.22812052 29.57267793 3.25642999 33.53626587 3.30175781 37.5 C3.34523119 41.32552727 3.36914015 45.15072334 3.37950897 48.97647858 C3.38689778 50.43575505 3.40132665 51.89501346 3.42292023 53.35414886 C3.45197624 55.398932 3.45595541 57.4423482 3.45410156 59.48730469 C3.46298401 60.65090515 3.47186646 61.81450562 3.48101807 63.0133667 C2.90408185 66.59555424 1.77659359 67.75666916 -1 70 C-1 67 -1 67 -0.01992798 64.69795227 C1.1565565 61.58587079 1.27757428 59.15527051 1.31884766 55.83276367 C1.33871735 54.61187546 1.35858704 53.39098724 1.37905884 52.13310242 C1.39061005 50.82460831 1.40216125 49.5161142 1.4140625 48.16796875 C1.43278547 46.80746806 1.45235973 45.44697883 1.4727478 44.08650208 C1.52395602 40.51753521 1.56364187 36.94853074 1.60089111 33.37939453 C1.64100201 29.73265365 1.69206192 26.08606766 1.7421875 22.43945312 C1.83881261 15.29308232 1.92326001 8.14661425 2 1 C1.34 0.67 0.68 0.34 0 0 Z " fill="#868686" transform="translate(328,243)"/>
<path d="M0 0 C1.77260631 0.45142775 3.5430368 0.91140523 5.3125 1.375 C6.79169922 1.75785156 6.79169922 1.75785156 8.30078125 2.1484375 C11 3 11 3 14 5 C14.66 4.67 15.32 4.34 16 4 C16.37125 4.495 16.7425 4.99 17.125 5.5 C19.737039 7.5896312 21.73541723 7.06945921 25 7 C25.66 7.66 26.32 8.32 27 9 C26.67 9.99 26.34 10.98 26 12 C26.33 12.66 26.66 13.32 27 14 C20.87460749 12.31329772 15.81558456 9.86862192 10.44140625 6.49609375 C7.06322286 4.42594297 3.568147 2.7179967 0 1 C0 0.67 0 0.34 0 0 Z " fill="#3C413F" transform="translate(184,245)"/>
<path d="M0 0 C0 1.98 0 3.96 0 6 C-0.33 5.01 -0.66 4.02 -1 3 C-7.57391663 5.42422088 -13.54793928 8.30947365 -19.5546875 11.92578125 C-22 13 -22 13 -24.3203125 12.66796875 C-24.87460937 12.44753906 -25.42890625 12.22710937 -26 12 C-25.34 12 -24.68 12 -24 12 C-24 11.34 -24 10.68 -24 10 C-17.48464985 5.0534218 -8.3376861 0 0 0 Z " fill="#A0AAAF" transform="translate(321,247)"/>
<path d="M0 0 C3.63 0 7.26 0 11 0 C10.67 13.86 10.34 27.72 10 42 C9.67 42 9.34 42 9 42 C8.98541748 41.02651611 8.97083496 40.05303223 8.95581055 39.05004883 C8.89766704 35.42484524 8.82043623 31.8002524 8.73754883 28.17553711 C8.70437468 26.60923199 8.67631942 25.04280949 8.65356445 23.47631836 C8.61987884 21.21938237 8.56755951 18.96351474 8.51171875 16.70703125 C8.50532883 16.01100296 8.4989389 15.31497467 8.49235535 14.59785461 C8.36066515 10.20484235 7.49098245 7.59005047 5 4 C4.67 3.01 4.34 2.02 4 1 C2.68 0.67 1.36 0.34 0 0 Z " fill="#737577" transform="translate(220,263)"/>
<path d="M0 0 C2 2 2 2 2.22705078 3.97119141 C2.21657715 4.75671387 2.20610352 5.54223633 2.1953125 6.3515625 C2.18886719 7.20234375 2.18242187 8.053125 2.17578125 8.9296875 C2.15902344 9.81914062 2.14226562 10.70859375 2.125 11.625 C2.11597656 12.5221875 2.10695312 13.419375 2.09765625 14.34375 C2.0740497 16.56276586 2.0411231 18.78125077 2 21 C2.66 21 3.32 21 4 21 C4 22.32 4 23.64 4 25 C2.35 25 0.7 25 -1 25 C-2.29132612 21.12602163 -1.89572379 17.63171216 -1.625 13.625 C-1.58117187 12.86960938 -1.53734375 12.11421875 -1.4921875 11.3359375 C-1.24932085 7.47705629 -0.88756962 3.77593175 0 0 Z " fill="#6B6C6D" transform="translate(170,214)"/>
<path d="M0 0 C-3.60957611 3.2910841 -6.12637153 4.54663921 -11 5 C-11 5.66 -11 6.32 -11 7 C-12.98 7.33 -14.96 7.66 -17 8 C-17 8.66 -17 9.32 -17 10 C-17.68707031 10.26554688 -18.37414062 10.53109375 -19.08203125 10.8046875 C-19.98308594 11.15789062 -20.88414062 11.51109375 -21.8125 11.875 C-23.15248047 12.39707031 -23.15248047 12.39707031 -24.51953125 12.9296875 C-27.17711591 13.98832155 -27.17711591 13.98832155 -30 16 C-30.99 15.67 -31.98 15.34 -33 15 C-26.72362079 11.55516817 -20.43157578 8.13921119 -14.125 4.75 C-13.4952124 4.40904297 -12.8654248 4.06808594 -12.21655273 3.71679688 C-2.73057997 -1.36528998 -2.73057997 -1.36528998 0 0 Z " fill="#595D5C" transform="translate(329,239)"/>
<path d="M0 0 C0 0.66 0 1.32 0 2 C-12.87 2.33 -25.74 2.66 -39 3 C-39.33 3.66 -39.66 4.32 -40 5 C-42.31 4.34 -44.62 3.68 -47 3 C-44.62171545 0.62171545 -44.09576677 0.7384203 -40.85742188 0.68115234 C-40.00313599 0.66128265 -39.1488501 0.64141296 -38.26867676 0.62094116 C-37.34470093 0.60938995 -36.4207251 0.59783875 -35.46875 0.5859375 C-34.52189331 0.56657135 -33.57503662 0.5472052 -32.5994873 0.5272522 C-29.56641726 0.46736184 -26.53330865 0.42105371 -23.5 0.375 C-21.45441033 0.33682515 -19.40883681 0.29777371 -17.36328125 0.2578125 C-3.84114794 0 -3.84114794 0 0 0 Z " fill="#929394" transform="translate(271,202)"/>
<path d="M0 0 C0 0.66 0 1.32 0 2 C0.66 2 1.32 2 2 2 C2 2.66 2 3.32 2 4 C2.99 4.33 3.98 4.66 5 5 C6.1875 8.0625 6.1875 8.0625 7 11 C6.01 11.495 6.01 11.495 5 12 C5 11.34 5 10.68 5 10 C4.34 10 3.68 10 3 10 C3 9.34 3 8.68 3 8 C2.34 8 1.68 8 1 8 C0.360625 7.175 -0.27875 6.35 -0.9375 5.5 C-1.618125 4.675 -2.29875 3.85 -3 3 C-6.20395416 3 -8.09399739 3.74335022 -11 5 C-11 3 -11 3 -9.4375 1.375 C-6.19319567 -0.45512039 -3.66275561 -0.21131282 0 0 Z " fill="#8E9492" transform="translate(251,227)"/>
<path d="M0 0 C0 3 0 3 -1.75 5.04296875 C-2.4925 5.75066406 -3.235 6.45835937 -4 7.1875 C-4.7425 7.90292969 -5.485 8.61835938 -6.25 9.35546875 C-6.8275 9.89816406 -7.405 10.44085938 -8 11 C-7.67 11.66 -7.34 12.32 -7 13 C-7.99 13.33 -8.98 13.66 -10 14 C-9.01 16.31 -8.02 18.62 -7 21 C-12.75 19.25 -12.75 19.25 -15 17 C-14.01 17 -13.02 17 -12 17 C-12.12375 16.30519531 -12.2475 15.61039062 -12.375 14.89453125 C-11.80819132 10.51947675 -9.14085132 8.59844667 -6 5.6875 C-5.14148438 4.86282227 -5.14148438 4.86282227 -4.265625 4.02148438 C-2.85476051 2.6694059 -1.42879488 1.33311665 0 0 Z " fill="#A4ACA6" transform="translate(231,250)"/>
<path d="M0 0 C0.33 0.66 0.66 1.32 1 2 C-0.62339805 3.70884005 -2.29319053 5.37446717 -4 7 C-4.66 7 -5.32 7 -6 7 C-6.33 7.99 -6.66 8.98 -7 10 C-9.875 12.75 -9.875 12.75 -13 15 C-13.99 14.67 -14.98 14.34 -16 14 C-15.57847656 13.51789063 -15.15695313 13.03578125 -14.72265625 12.5390625 C-14.17480469 11.90742188 -13.62695312 11.27578125 -13.0625 10.625 C-12.51722656 9.99851563 -11.97195312 9.37203125 -11.41015625 8.7265625 C-9.93041376 7.04367666 -9.93041376 7.04367666 -9 5 C-8.01 5 -7.02 5 -6 5 C-5.67 3.68 -5.34 2.36 -5 1 C-4.67 1.99 -4.34 2.98 -4 4 C-2.68 2.68 -1.36 1.36 0 0 Z " fill="#797B79" transform="translate(239,230)"/>
<path d="M0 0 C0.66 0.33 1.32 0.66 2 1 C1.37935063 2.60585493 0.7533082 4.20962617 0.125 5.8125 C-0.22304687 6.70582031 -0.57109375 7.59914062 -0.9296875 8.51953125 C-2 11 -2 11 -4 14 C-4.3626117 15.92744369 -4.3626117 15.92744369 -4.4140625 18.01171875 C-4.45273438 18.76904297 -4.49140625 19.52636719 -4.53125 20.30664062 C-4.5621875 21.09232422 -4.593125 21.87800781 -4.625 22.6875 C-4.66367188 23.48478516 -4.70234375 24.28207031 -4.7421875 25.10351562 C-4.83632494 27.06863475 -4.91924632 29.0342854 -5 31 C-5.33 31 -5.66 31 -6 31 C-6.05449228 28.16640156 -6.09390733 25.33387515 -6.125 22.5 C-6.14175781 21.70851562 -6.15851563 20.91703125 -6.17578125 20.1015625 C-6.23909364 12.37745053 -5.50828577 5.87550483 0 0 Z " fill="#A6A6A9" transform="translate(174,205)"/>
<path d="M0 0 C0.99 0 1.98 0 3 0 C7.57082968 4.97413818 8.12468273 8.45273008 8.09765625 15.07421875 C8.0962413 15.7580513 8.09482635 16.44188385 8.09336853 17.1464386 C8.08777876 19.32683722 8.07522822 21.50713251 8.0625 23.6875 C8.05748367 25.16731622 8.052921 26.64713406 8.04882812 28.12695312 C8.03781271 31.75133557 8.02055512 35.3756577 8 39 C7.67 39 7.34 39 7 39 C6.98541748 38.11739502 6.97083496 37.23479004 6.95581055 36.32543945 C6.89457933 33.03561357 6.8203967 29.7466007 6.73754883 26.45727539 C6.70439443 25.03648798 6.67633308 23.61557187 6.65356445 22.19458008 C6.61984153 20.1460918 6.56752255 18.0987728 6.51171875 16.05078125 C6.48553467 14.82012939 6.45935059 13.58947754 6.43237305 12.3215332 C5.96683474 8.74522115 5.16453099 6.85592962 3 4 C2.01 3.34 1.02 2.68 0 2 C0 1.34 0 0.68 0 0 Z " fill="#86888A" transform="translate(221,264)"/>
<path d="M0 0 C0.66 0.66 1.32 1.32 2 2 C-3.75 6 -3.75 6 -6 6 C-6.33 7.65 -6.66 9.3 -7 11 C-7.99 11.33 -8.98 11.66 -10 12 C-10 9.69 -10 7.38 -10 5 C-8.68 4.67 -7.36 4.34 -6 4 C-6 3.34 -6 2.68 -6 2 C-4.02 1.34 -2.04 0.68 0 0 Z " fill="#C5CDCD" transform="translate(280,266)"/>
<path d="M0 0 C0.97687451 3.03916514 1.105817 4.98413546 0 8 C-0.66 8.66 -1.32 9.32 -2 10 C-3.32 10 -4.64 10 -6 10 C-6.33 10.99 -6.66 11.98 -7 13 C-7.66 12.67 -8.32 12.34 -9 12 C-8 10.33333333 -7 8.66666667 -6 7 C-5.505 6.113125 -5.01 5.22625 -4.5 4.3125 C-3 2 -3 2 0 0 Z " fill="#CFD1D0" transform="translate(232,242)"/>
<path d="M0 0 C7.875 0.875 7.875 0.875 9 2 C11.32817964 2.36760731 13.6618385 2.70241581 16 3 C16.33 2.34 16.66 1.68 17 1 C17 1.99 17 2.98 17 4 C15.865625 4.12375 14.73125 4.2475 13.5625 4.375 C11.7990625 4.684375 11.7990625 4.684375 10 5 C9.67 5.66 9.34 6.32 9 7 C6.36 6.34 3.72 5.68 1 5 C1.33 4.01 1.66 3.02 2 2 C1.34 1.34 0.68 0.68 0 0 Z " fill="#6B8870" transform="translate(195,256)"/>
<path d="M0 0 C0.66 0.66 1.32 1.32 2 2 C1.34 2.66 0.68 3.32 0 4 C-0.64767793 6.57061311 -0.64767793 6.57061311 -1 9 C-2.65 9 -4.3 9 -6 9 C-6.66 7.68 -7.32 6.36 -8 5 C-2.25 1.125 -2.25 1.125 0 0 Z " fill="#D6DCD7" transform="translate(220,258)"/>
<path d="M0 0 C1.485 0.99 1.485 0.99 3 2 C3.26667539 4.83727325 3.34791234 7.45383045 3.29296875 10.2890625 C3.28872391 11.10748627 3.28447906 11.92591003 3.28010559 12.76913452 C3.26328679 15.38808836 3.22562974 18.00627802 3.1875 20.625 C3.17245726 22.3984264 3.15876814 24.17186484 3.14648438 25.9453125 C3.11337292 30.2971703 3.06156952 34.64845551 3 39 C2.67 39 2.34 39 2 39 C1.97494385 37.99622314 1.9498877 36.99244629 1.92407227 35.95825195 C1.82964704 32.2214764 1.72951314 28.48487157 1.62768555 24.74829102 C1.58446917 23.13342289 1.54278511 21.51851298 1.50268555 19.90356445 C1.44465952 17.57750883 1.38105971 15.25166096 1.31640625 12.92578125 C1.29969376 12.20787918 1.28298126 11.48997711 1.26576233 10.75032043 C1.15763988 7.06228324 0.86035952 3.5914652 0 0 Z " fill="#8BA78F" transform="translate(223,267)"/>
<path d="M0 0 C0.33 1.32 0.66 2.64 1 4 C2.65 4.33 4.3 4.66 6 5 C6.33 6.98 6.66 8.96 7 11 C3.65851561 9.82596494 1.18896282 8.84565166 -1 6 C-1.6875 3.8125 -1.6875 3.8125 -2 2 C-1.34 2 -0.68 2 0 2 C0 1.34 0 0.68 0 0 Z " fill="#6C756F" transform="translate(178,300)"/>
<path d="M0 0 C3.3 0 6.6 0 10 0 C9 3 9 3 6 5 C6 5.33 6 5.66 6 6 C4.02 6 2.04 6 0 6 C0.185625 5.38125 0.37125 4.7625 0.5625 4.125 C1.23686176 1.95839822 1.23686176 1.95839822 0 0 Z " fill="#949595" transform="translate(288,311)"/>
<path d="M0 0 C0 0.66 0 1.32 0 2 C-2.40912355 3.36936501 -4.82574185 4.72041993 -7.25 6.0625 C-7.93191406 6.45244141 -8.61382812 6.84238281 -9.31640625 7.24414062 C-9.98027344 7.60830078 -10.64414062 7.97246094 -11.328125 8.34765625 C-11.9355957 8.68804932 -12.54306641 9.02844238 -13.16894531 9.37915039 C-15.46093824 10.15628879 -16.74457325 9.76849965 -19 9 C-16.40011448 7.49212623 -13.79559803 5.99354539 -11.1875 4.5 C-10.44951172 4.07074219 -9.71152344 3.64148438 -8.95117188 3.19921875 C-8.23896484 2.79316406 -7.52675781 2.38710938 -6.79296875 1.96875 C-6.1383667 1.59169922 -5.48376465 1.21464844 -4.80932617 0.82617188 C-3 0 -3 0 0 0 Z " fill="#4B5D81" transform="translate(295,262)"/>
<path d="M0 0 C0.2475 0.53625 0.495 1.0725 0.75 1.625 C3.1799678 6.24193882 5.55163563 10.14033719 10 13 C9.67 13.66 9.34 14.32 9 15 C5.85167182 14.0618618 4.31322478 13.44108707 2.3828125 10.72265625 C1.96773437 9.84480469 1.55265625 8.96695312 1.125 8.0625 C0.69445312 7.18722656 0.26390625 6.31195313 -0.1796875 5.41015625 C-1 3 -1 3 0 0 Z " fill="#5A5A5C" transform="translate(171,303)"/>
<path d="M0 0 C0.99 0.33 1.98 0.66 3 1 C-2.94 6.445 -2.94 6.445 -9 12 C-9 9 -9 9 -7.03125 6.73828125 C-5.77828125 5.53751953 -5.77828125 5.53751953 -4.5 4.3125 C-3.6646875 3.50425781 -2.829375 2.69601563 -1.96875 1.86328125 C-1.3190625 1.24839844 -0.669375 0.63351563 0 0 Z M-17 17 C-16.34 17.33 -15.68 17.66 -15 18 C-15.99 18.99 -16.98 19.98 -18 21 C-17.67 19.68 -17.34 18.36 -17 17 Z " fill="#F3F5F4" transform="translate(249,233)"/>
<path d="M0 0 C0.80824219 0.11085937 1.61648437 0.22171875 2.44921875 0.3359375 C3.37154297 0.47902344 3.37154297 0.47902344 4.3125 0.625 C4.3125 1.285 4.3125 1.945 4.3125 2.625 C2.6728125 2.5321875 2.6728125 2.5321875 1 2.4375 C-2.58894627 2.25356345 -2.58894627 2.25356345 -4.4375 4.0625 C-4.85 4.578125 -5.2625 5.09375 -5.6875 5.625 C-6.6775 5.955 -7.6675 6.285 -8.6875 6.625 C-8.375 4.25 -8.375 4.25 -7.6875 1.625 C-4.33422361 -0.61051759 -3.78006343 -0.54783528 0 0 Z " fill="#9B9D9C" transform="translate(227.6875,178.375)"/>
<path d="M0 0 C0.33 2.97 0.66 5.94 1 9 C-0.65 9.33 -2.3 9.66 -4 10 C-4.29296875 3.9453125 -4.29296875 3.9453125 -4 2 C-1 0 -1 0 0 0 Z " fill="#343535" transform="translate(176,296)"/>
<path d="M0 0 C0.99 0.33 1.98 0.66 3 1 C2.88617347 2.95901454 2.75858875 4.9172338 2.625 6.875 C2.55539063 7.96554688 2.48578125 9.05609375 2.4140625 10.1796875 C2 13 2 13 0 15 C-0.33 11.7 -0.66 8.4 -1 5 C-1.99 5.33 -2.98 5.66 -4 6 C-3 3 -3 3 0 1 C0 0.67 0 0.34 0 0 Z " fill="#888B8C" transform="translate(226,185)"/>
<path d="M0 0 C1.98 0.66 3.96 1.32 6 2 C6 2.66 6 3.32 6 4 C5.01 4 4.02 4 3 4 C4.32 4.99 5.64 5.98 7 7 C5.33388095 7.042721 3.66617115 7.04063832 2 7 C1.67 6.67 1.34 6.34 1 6 C0.34 7.32 -0.32 8.64 -1 10 C-0.67 6.7 -0.34 3.4 0 0 Z " fill="#67936B" transform="translate(181,248)"/>
<path d="M0 0 C0 1.98 0 3.96 0 6 C-0.33 5.01 -0.66 4.02 -1 3 C-5.95 4.485 -5.95 4.485 -11 6 C-10.67 5.01 -10.34 4.02 -10 3 C-6.5065403 1.25327015 -3.93154432 0 0 0 Z " fill="#A6AEB2" transform="translate(321,247)"/>
<path d="M0 0 C0.86625 0.556875 0.86625 0.556875 1.75 1.125 C1.42 1.785 1.09 2.445 0.75 3.125 C1.74 3.455 2.73 3.785 3.75 4.125 C-0.30431692 5.28337626 -2.46812119 4.96191257 -6.25 3.125 C-6.25 2.465 -6.25 1.805 -6.25 1.125 C-2.80384615 -1.09038462 -2.80384615 -1.09038462 0 0 Z " fill="#3C548B" transform="translate(307.25,258.875)"/>
<path d="M0 0 C2.64 1.98 5.28 3.96 8 6 C9.32 5.34 10.64 4.68 12 4 C12.99 4.33 13.98 4.66 15 5 C12.68566769 7.13630675 11.18599621 7.96438371 8.0625 8.5625 C4.73874577 7.95201453 4.23160415 7.5657963 2.125 5.125 C0 2 0 2 0 0 Z " fill="#4D5250" transform="translate(281,251)"/>
<path d="M0 0 C1.88414642 3.19457351 2.23819737 5.51502629 2.1953125 9.203125 C2.18886719 10.1828125 2.18242187 11.1625 2.17578125 12.171875 C2.15902344 13.18765625 2.14226562 14.2034375 2.125 15.25 C2.11597656 16.28125 2.10695313 17.3125 2.09765625 18.375 C2.07412011 20.91690287 2.04124023 23.4583328 2 26 C1.67 26 1.34 26 1 26 C1 19.4 1 12.8 1 6 C0.34 6 -0.32 6 -1 6 C-0.67 4.02 -0.34 2.04 0 0 Z " fill="#EAEAEA" transform="translate(330,212)"/>
<path d="M0 0 C5.28 0 10.56 0 16 0 C12.71508627 2.18994248 11.16904361 2.35277339 7.3125 2.625 C5.82169922 2.73714844 5.82169922 2.73714844 4.30078125 2.8515625 C3.16189453 2.92503906 3.16189453 2.92503906 2 3 C1.34 2.01 0.68 1.02 0 0 Z " fill="#CBCBCD" transform="translate(259,177)"/>
<path d="M0 0 C2.64 0 5.28 0 8 0 C5.42215154 2.64752004 3.08351902 4.94432065 0 7 C0 4.69 0 2.38 0 0 Z " fill="#757775" transform="translate(269,263)"/>
<path d="M0 0 C3.63 0 7.26 0 11 0 C10.67 2.31 10.34 4.62 10 7 C8.56770833 5.76302083 7.13541667 4.52604167 5.703125 3.2890625 C3.72409366 1.70937846 3.72409366 1.70937846 0 0 Z " fill="#5B5F5E" transform="translate(220,263)"/>
<path d="M0 0 C5.68502535 1.64566523 10.76681636 4.29032784 16 7 C16 7.33 16 7.66 16 8 C11.25458561 8.741471 8.62683536 6.75879224 4.8671875 4.19140625 C2.90590459 2.83323683 2.90590459 2.83323683 0 2 C0 1.34 0 0.68 0 0 Z " fill="#525754" transform="translate(193,251)"/>
<path d="M0 0 C0.66 0 1.32 0 2 0 C1.814375 0.721875 1.62875 1.44375 1.4375 2.1875 C0.98004693 5.12826973 1.26483643 7.14103058 2 10 C0.02 10.99 0.02 10.99 -2 12 C-2.05422947 10.5629191 -2.09289723 9.12524538 -2.125 7.6875 C-2.14820313 6.88699219 -2.17140625 6.08648437 -2.1953125 5.26171875 C-2 3 -2 3 0 0 Z " fill="#BCBEBC" transform="translate(234,238)"/>
<path d="M0 0 C0.69867188 0.0721875 1.39734375 0.144375 2.1171875 0.21875 C3.02726562 0.3115625 3.93734375 0.404375 4.875 0.5 C5.77992188 0.5928125 6.68484375 0.685625 7.6171875 0.78125 C9.93313211 1.03047295 9.93313211 1.03047295 12 1 C12 1.66 12 2.32 12 3 C8.78548731 4.60725635 5.56387464 4.05748185 2 4 C1.34 2.68 0.68 1.36 0 0 Z " fill="#797F7D" transform="translate(282,257)"/>
<path d="M0 0 C-0.33 0.99 -0.66 1.98 -1 3 C-0.67 3.66 -0.34 4.32 0 5 C-1.9375 4.625 -1.9375 4.625 -4 4 C-4.33 3.34 -4.66 2.68 -5 2 C-7.01669827 0.86649466 -7.01669827 0.86649466 -9 0 C-9 -0.33 -9 -0.66 -9 -1 C-3.375 -2.25 -3.375 -2.25 0 0 Z " fill="#464B49" transform="translate(211,254)"/>
<path d="M0 0 C3.34373475 0.55728913 6.03312999 1.35173889 9 3 C8.67 4.65 8.34 6.3 8 8 C6.02 7.01 4.04 6.02 2 5 C2.66 4.67 3.32 4.34 4 4 C4.66 4.33 5.32 4.66 6 5 C6 4.34 6 3.68 6 3 C4.02 2.34 2.04 1.68 0 1 C0 0.67 0 0.34 0 0 Z " fill="#607861" transform="translate(181,247)"/>
<path d="M0 0 C0.598125 0.226875 1.19625 0.45375 1.8125 0.6875 C0.4375 2.1875 0.4375 2.1875 -1.1875 3.6875 C-1.8475 3.6875 -2.5075 3.6875 -3.1875 3.6875 C-2.8575 4.6775 -2.5275 5.6675 -2.1875 6.6875 C-3.8375 6.6875 -5.4875 6.6875 -7.1875 6.6875 C-3.9375 -0.5625 -3.9375 -0.5625 0 0 Z " fill="#B1B5B3" transform="translate(277.1875,264.3125)"/>
<path d="M0 0 C0.33 1.32 0.66 2.64 1 4 C-5.4 7.07692308 -5.4 7.07692308 -8.4375 6.6875 C-8.953125 6.460625 -9.46875 6.23375 -10 6 C-10 5.34 -10 4.68 -10 4 C-7.36 3.67 -4.72 3.34 -2 3 C-2 2.34 -2 1.68 -2 1 C-1.34 0.67 -0.68 0.34 0 0 Z " fill="#8E979A" transform="translate(296,257)"/>
<path d="M0 0 C1.17539996 0.92652701 2.34010577 1.86663387 3.5 2.8125 C4.1496875 3.33457031 4.799375 3.85664063 5.46875 4.39453125 C7 6 7 6 7 9 C4.13998967 7.71792641 1.92960588 6.50848764 0 4 C0 2.68 0 1.36 0 0 Z " fill="#949998" transform="translate(261,240)"/>
<path d="M0 0 C0 4.24645065 -1.81750806 6.38524772 -4 10 C-4.99 9.67 -5.98 9.34 -7 9 C-5.44499019 5.18315774 -2.96404505 2.80804268 0 0 Z " fill="#BBBFBD" transform="translate(228,244)"/>
<path d="M0 0 C0.33 0 0.66 0 1 0 C1 3.63 1 7.26 1 11 C1.66 11 2.32 11 3 11 C3 12.32 3 13.64 3 15 C1.68 14.67 0.36 14.34 -1 14 C-0.67 9.38 -0.34 4.76 0 0 Z " fill="#616364" transform="translate(171,224)"/>
<path d="M0 0 C0.66 0 1.32 0 2 0 C0.83857315 4.35535069 -0.07699505 6.64619703 -4 9 C-4.33 7.35 -4.66 5.7 -5 4 C-4.01 3.67 -3.02 3.34 -2 3 C-1.34 2.01 -0.68 1.02 0 0 Z " fill="#8B8D8C" transform="translate(241,221)"/>
<path d="M0 0 C0.99 0.66 1.98 1.32 3 2 C1.37750059 2.83819158 -0.24808497 3.6704116 -1.875 4.5 C-3.23238281 5.19609375 -3.23238281 5.19609375 -4.6171875 5.90625 C-7 7 -7 7 -9 7 C-9 6.34 -9 5.68 -9 5 C-6.03 3.35 -3.06 1.7 0 0 Z " fill="#5B6E8F" transform="translate(304,256)"/>
<path d="M0 0 C0 0.99 0 1.98 0 3 C-1.1446875 3.1546875 -1.1446875 3.1546875 -2.3125 3.3125 C-5.17059424 4.04364039 -6.15742885 4.76951913 -8 7 C-8.99 6.67 -9.98 6.34 -11 6 C-3.92307692 0 -3.92307692 0 0 0 Z " fill="#BBC0BE" transform="translate(247,231)"/>
<path d="M0 0 C0.66 0 1.32 0 2 0 C1.67 0.99 1.34 1.98 1 3 C-3.79300133 4.39151652 -8.15135782 3.68662689 -13 3 C-13 2.67 -13 2.34 -13 2 C-12.14535156 1.93941406 -11.29070312 1.87882812 -10.41015625 1.81640625 C-8.75306641 1.69072266 -8.75306641 1.69072266 -7.0625 1.5625 C-5.96035156 1.48128906 -4.85820312 1.40007812 -3.72265625 1.31640625 C-1.08890097 1.29581916 -1.08890097 1.29581916 0 0 Z " fill="#939495" transform="translate(323,314)"/>
<path d="M0 0 C2.78637633 4.1795645 1.79562512 6.14668677 1 11 C0.67 11 0.34 11 0 11 C0 8.69 0 6.38 0 4 C-1.32 3.67 -2.64 3.34 -4 3 C-3 1 -3 1 0 0 Z " fill="#A7AFAA" transform="translate(226,305)"/>
<path d="M0 0 C1.98 0.495 1.98 0.495 4 1 C3.67 2.65 3.34 4.3 3 6 C2.01 6 1.02 6 0 6 C-1.125 2.25 -1.125 2.25 0 0 Z " fill="#10793C" transform="translate(219,272)"/>
<path d="M0 0 C0.66 0.33 1.32 0.66 2 1 C1.75 2.875 1.75 2.875 1 5 C-1.0625 6.25 -1.0625 6.25 -3 7 C-3.99 6.34 -4.98 5.68 -6 5 C-5.38125 4.731875 -4.7625 4.46375 -4.125 4.1875 C-1.7004767 3.04443152 -1.7004767 3.04443152 0 0 Z " fill="#565958" transform="translate(214,251)"/>
<path d="M0 0 C0.66 0.99 1.32 1.98 2 3 C0.54735962 3.8638129 -0.9123163 4.71580454 -2.375 5.5625 C-3.59316406 6.27599609 -3.59316406 6.27599609 -4.8359375 7.00390625 C-5.55007813 7.33261719 -6.26421875 7.66132813 -7 8 C-7.66 7.67 -8.32 7.34 -9 7 C-6.62624557 4.25144224 -4.33642103 3.3170083 -1 2 C-0.67 1.34 -0.34 0.68 0 0 Z " fill="#D5D9D8" transform="translate(304,246)"/>
<path d="M0 0 C0 0.99 0 1.98 0 3 C-2.8125 5.75 -2.8125 5.75 -6 8 C-6.99 7.67 -7.98 7.34 -9 7 C-6.19195732 4.03595495 -3.81684226 1.55500981 0 0 Z " fill="#727674" transform="translate(232,237)"/>
<path d="M0 0 C1.32 0.66 2.64 1.32 4 2 C1.36 3.65 -1.28 5.3 -4 7 C-3.6875 4.625 -3.6875 4.625 -3 2 C-2.01 1.34 -1.02 0.68 0 0 Z " fill="#676968" transform="translate(178,204)"/>
<path d="M0 0 C5.3592233 0.46601942 5.3592233 0.46601942 7.875 2.5625 C8.431875 3.2740625 8.431875 3.2740625 9 4 C8.21625 3.814375 7.4325 3.62875 6.625 3.4375 C4.02910225 2.74037734 4.02910225 2.74037734 2 4 C1.01 3.01 0.02 2.02 -1 1 C-0.67 0.67 -0.34 0.34 0 0 Z " fill="#0F7B3D" transform="translate(210,268)"/>
<path d="M0 0 C0.99 0.33 1.98 0.66 3 1 C3 5.29 3 9.58 3 14 C2.67 14 2.34 14 2 14 C1.67 10.37 1.34 6.74 1 3 C0.01 3 -0.98 3 -2 3 C-2 2.34 -2 1.68 -2 1 C-1.34 0.67 -0.68 0.34 0 0 Z " fill="#4D6091" transform="translate(315,253)"/>
<path d="M0 0 C0 0.99 0 1.98 0 3 C-7.42857143 5.14285714 -7.42857143 5.14285714 -11 6 C-7.57865372 2.33427184 -5.14341528 0 0 0 Z " fill="#919B9B" transform="translate(310,251)"/>
<path d="M0 0 C1.32 1.32 2.64 2.64 4 4 C2.35 5.32 0.7 6.64 -1 8 C-1 5.16032769 -0.59732819 2.76264289 0 0 Z " fill="#696C6B" transform="translate(225,235)"/>
<path d="M0 0 C2.475 0.495 2.475 0.495 5 1 C4.01 2.485 4.01 2.485 3 4 C3.33 4.66 3.66 5.32 4 6 C3.01 6.33 2.02 6.66 1 7 C0 6 0 6 -0.0625 2.9375 C-0.041875 1.968125 -0.02125 0.99875 0 0 Z " fill="#7D8080" transform="translate(275,310)"/>
<path d="M0 0 C0.33 0 0.66 0 1 0 C1.49230769 6.4 1.49230769 6.4 -1 9.4375 C-1.99 10.2109375 -1.99 10.2109375 -3 11 C-3 8.04725901 -2.56108169 6.50941597 -1.5 3.8125 C-1.2215625 3.09707031 -0.943125 2.38164062 -0.65625 1.64453125 C-0.33140625 0.83048828 -0.33140625 0.83048828 0 0 Z " fill="#A4A4A4" transform="translate(330,302)"/>
<path d="M0 0 C0.33 0.99 0.66 1.98 1 3 C0.01 4.485 0.01 4.485 -1 6 C-2.65 5.67 -4.3 5.34 -6 5 C-3.9927092 1.9890638 -3.16115776 1.36983503 0 0 Z " fill="#959A99" transform="translate(318,304)"/>
<path d="M0 0 C0.99 0.66 1.98 1.32 3 2 C1.1875 4 1.1875 4 -1 6 C-1.99 6 -2.98 6 -4 6 C-2.84826645 3.53199953 -1.95216435 1.95216435 0 0 Z " fill="#CDD0CF" transform="translate(243,233)"/>
<path d="M0 0 C3.21043882 1.38188453 5.04936365 2.92421903 7.25 5.625 C8.03117187 6.57246094 8.03117187 6.57246094 8.828125 7.5390625 C9.40820312 8.26222656 9.40820312 8.26222656 10 9 C5.71616807 7.02706248 2.15162133 4.30324265 0 0 Z " fill="#404342" transform="translate(250,221)"/>
<path d="M0 0 C2.475 0.495 2.475 0.495 5 1 C5 1.66 5 2.32 5 3 C6.32 3.33 7.64 3.66 9 4 C7.02 4.99 7.02 4.99 5 6 C4.67 5.01 4.34 4.02 4 3 C1.98491642 2.26676204 1.98491642 2.26676204 0 2 C0 1.34 0 0.68 0 0 Z " fill="#9BA6A6" transform="translate(281,260)"/>
<path d="M0 0 C0.66 0.33 1.32 0.66 2 1 C-0.41556126 4.19199167 -2.68003538 6.74716687 -6 9 C-5.52797514 4.75177626 -3.03344482 2.80010291 0 0 Z " fill="#B8C2BC" transform="translate(217,256)"/>
<path d="M0 0 C0.66 0.33 1.32 0.66 2 1 C0.19587357 4.26460973 -0.83394693 5.88929795 -4 8 C-3.40138258 5.64828869 -2.73075648 3.3140622 -2 1 C-1.34 0.67 -0.68 0.34 0 0 Z " fill="#949796" transform="translate(245,218)"/>
<path d="M0 0 C2.01822917 0.06510417 4.03645833 0.13020833 6.0546875 0.1953125 C5.0646875 0.6903125 5.0646875 0.6903125 4.0546875 1.1953125 C3.7246875 2.1853125 3.3946875 3.1753125 3.0546875 4.1953125 C0.7446875 3.5353125 -1.5653125 2.8753125 -3.9453125 2.1953125 C-1.9453125 0.1953125 -1.9453125 0.1953125 0 0 Z " fill="#848685" transform="translate(227.9453125,202.8046875)"/>
<path d="M0 0 C2.875 0.3125 2.875 0.3125 6 1 C6.66 1.99 7.32 2.98 8 4 C5.69 3.67 3.38 3.34 1 3 C0.67 2.01 0.34 1.02 0 0 Z " fill="#5F6A62" transform="translate(192,253)"/>
<path d="M0 0 C0.66 0.33 1.32 0.66 2 1 C2 1.99 2 2.98 2 4 C0.68 4 -0.64 4 -2 4 C-2.33 4.99 -2.66 5.98 -3 7 C-3.66 6.67 -4.32 6.34 -5 6 C-3.625 4 -3.625 4 -2 2 C-1.34 2 -0.68 2 0 2 C0 1.34 0 0.68 0 0 Z " fill="#D5D9D8" transform="translate(228,248)"/>
<path d="M0 0 C1.98 0 3.96 0 6 0 C6.33 0.99 6.66 1.98 7 3 C4 4 4 4 1.8125 3.0625 C1.214375 2.711875 0.61625 2.36125 0 2 C0 1.34 0 0.68 0 0 Z " fill="#737876" transform="translate(170,244)"/>
<path d="M0 0 C0.66 0 1.32 0 2 0 C2.33 1.32 2.66 2.64 3 4 C1.02 4.33 -0.96 4.66 -3 5 C-1.125 1.125 -1.125 1.125 0 0 Z " fill="#C2C2C2" transform="translate(328,239)"/>
<path d="M0 0 C2.5 1.3125 2.5 1.3125 5 3 C5 3.99 5 4.98 5 6 C5.66 6.33 6.32 6.66 7 7 C3.76509224 6.44225728 2.02144994 5.62788492 0 3 C0 2.01 0 1.02 0 0 Z " fill="#999B9A" transform="translate(177,303)"/>
<path d="M0 0 C0 0.66 0 1.32 0 2 C-4.15267176 5.11450382 -4.15267176 5.11450382 -7.3125 4.6875 C-7.869375 4.460625 -8.42625 4.23375 -9 4 C-2.25 0 -2.25 0 0 0 Z " fill="#445579" transform="translate(285,267)"/>
<path d="M0 0 C0 1.65 0 3.3 0 5 C-1.65 5 -3.3 5 -5 5 C-5 4.01 -5 3.02 -5 2 C-2 0 -2 0 0 0 Z " fill="#24417E" transform="translate(295,266)"/>
<path d="M0 0 C1.65 0 3.3 0 5 0 C4.34 1.65 3.68 3.3 3 5 C2.34 5 1.68 5 1 5 C0.67 3.35 0.34 1.7 0 0 Z " fill="#3F9D42" transform="translate(191,259)"/>
<path d="M0 0 C0.66 0.33 1.32 0.66 2 1 C1.67 1.99 1.34 2.98 1 4 C-0.98 4.33 -2.96 4.66 -5 5 C-4 2 -4 2 -2.0625 0.75 C-1.381875 0.5025 -0.70125 0.255 0 0 Z " fill="#606E8F" transform="translate(316,250)"/>
<path d="M0 0 C0 0.66 0 1.32 0 2 C-2.31 2.33 -4.62 2.66 -7 3 C-7 2.34 -7 1.68 -7 1 C-4.53721199 -0.231394 -2.7204945 -0.07159196 0 0 Z " fill="#78797B" transform="translate(278,201)"/>
</svg>
