<svg id="Layer_1" data-name="Layer 1" xmlns="http://www.w3.org/2000/svg" viewBox="0 0 700 700" xmlns:xlink="http://www.w3.org/1999/xlink">
 <defs>
  <style>
   .cls-1{fill:#206b33;}
  </style>
 </defs>
 <title>
  dmart_logo_avenue_super_markets
 </title>
 <g id="g22">
  <g id="g28">
   <path id="path30" class="cls-1" d="M77.94,284.42a109.11,109.11,0,0,1,11.29.82C106.57,287,120,294.07,129.64,306c9.49,11.94,14.23,26.33,14.23,43.35,0,20.29-6.06,37.46-18.32,51.37a68.51,68.51,0,0,1-22.09,16.85,62.52,62.52,0,0,1-25.52,6.22V410.88c21.6-5.73,33.87-24.7,33.87-60,0-34.84-15.06-48.58-33.87-53Zm-55.13.49-10.31-.49,1,8.83v12.6l.65,19.47v63.8l-.65,24.71-1,10.63,10.64-.65H34.59l16.52.65,24.54-.65h2.29V410.88a61.05,61.05,0,0,1-15.87,2H44.24V385.36l-.33-30.1.33-29.94V296H60.6a76,76,0,0,1,17.34,1.8V284.42h-7.2l-18,.49H22.81Z">
   </path>
  </g>
  <g id="g32">
   <path id="path34" class="cls-1" d="M273.77,414.48l2.29-12.27L280.31,372l6.06-45.65,2.45-19.47c1.15-7.2,2.13-14.39,3.11-21.76a84.1,84.1,0,0,0,17,.17l45.81,95.87c15.7-31.74,31.08-63.8,46.95-95.71a67.87,67.87,0,0,0,17.34-.65c5.73,46.46,11.13,92.76,17,139.05a175.23,175.23,0,0,0-32.06.5l-9.32-92.93-19.31,40.9-18.65,37.79-6.54,14.24h-7.53l-44.33-92.76q-4.43,46.14-8.67,92.26a94,94,0,0,0-17.83,0Z">
   </path>
  </g>
  <g id="g36">
   <path id="path38" class="cls-1" d="M556,327.12a168.38,168.38,0,0,0,27.32,0l.33,24.38c8.17-15.87,10.14-26.51,33.7-26.83a118.73,118.73,0,0,0-.82,27.48l-2.13,1.8c.5-.65-26.82-8.67-29.94,14.72a41,41,0,0,0-.16,4.26v3.6c0,15.87.33,31.9,1.48,47.77L556,424.13c1-21.92,4.25-76.72,0-97">
   </path>
  </g>
  <g id="g40">
   <path id="path42" class="cls-1" d="M503.46,372.27c-3.28,1.8-8.67,3.11-13.74,5.4V369c21.1-7.2,14.72-23.89,0-28.47V324a52.48,52.48,0,0,1,17.17,1.8c16.52,4.42,22.58,18.16,22.58,33.87v41.54c0,6.06-2,12.61,4.91,15.06a17.28,17.28,0,0,0,7,1l-.66,5.06C510,439,504,411.7,502.8,413.33a31.63,31.63,0,0,1-13.08,11V413c15-1.15,12.59-20.45,13.74-40.74m-13.74,5.4V369a87.51,87.51,0,0,1-9.82,2.29c-15.71,2.29-31.57,10.47-31.57,28.46,0,12.28,6.05,22.91,19.62,26.18,7.53,1.8,15.06,1.47,21.77-1.63V413a3.74,3.74,0,0,1-1.32.16c-8.17,0-12.59-5.56-12.27-16.69.33-10.79,6.71-15.7,13.59-18.81m0-53.66c-12.11,1-23.56,6.38-34.52,13.42L457.65,350l2-.32c10.3-10.31,21.59-11.78,30.1-9.17Z">
   </path>
  </g>
  <g id="g44">
   <path id="path46" class="cls-1" d="M641.53,328.43l-.82-25.19,29-12.93-.33,8.18-.82,9.82v20.45c5.9-.17,12,.48,17.34-1.64a25.79,25.79,0,0,0,0,11.13l-18.48-.5v59.39c0,7.2.33,12.44,2.13,15.05,3.92,5.4,11.61,5.23,18,2.45l-.65,8.35-4.09,1.47c-16.86,6.05-39.1,4.26-41.39-16.2a62.11,62.11,0,0,1-.5-8.17V337.75a117.21,117.21,0,0,1-13.25.5,23.76,23.76,0,0,0,0-10.81Z">
   </path>
  </g>
 </g>
 <g id="g48">
  <path id="path50" class="cls-1" d="M142.1,418H256.78l2.38,5.67H139.71Zm6-14.17H250.8l2.12,5H146Zm5.73-13.59h91.28l1.86,4.43h-95Zm5.55-13.17h80.18l1.69,4H157.65Zm5.37-12.75h69.44l1.51,3.59H163.2ZM169.91,352H229l1.33,3.17H168.58Zm5-11.92h49l1.17,2.76H173.77Zm4.84-11.49H219.1l1,2.33h-41.3Z">
  </path>
 </g>
 <g id="g54">
  <g id="g60">
   <path id="path62" class="cls-1" d="M199.44,272.25c-5.14,26.89-1.62,21.65-26.73,19.42,24.69,11.65,22.38,6,10.21,31.42,10.7-8.9,16.06-16,16.52-23.93.46,7.88,5.81,15,16.52,23.93-12.18-25.38-14.48-19.77,10.21-31.42-25.11,2.23-21.59,7.47-26.73-19.42">
   </path>
  </g>
  <g id="g64">
   <path id="path66" class="cls-1" d="M212.44,282.43a3.71,3.71,0,1,0,.78,5.18,3.71,3.71,0,0,0-.78-5.18">
   </path>
  </g>
  <g id="g68">
   <path id="path70" class="cls-1" d="M186.44,282.43a3.71,3.71,0,1,1-.79,5.18,3.69,3.69,0,0,1,.79-5.18">
   </path>
  </g>
 </g>
</svg>